<svg width="1402" height="371" viewBox="0 0 1402 371" fill="none" xmlns="http://www.w3.org/2000/svg">
<path d="M322.841 198.868C322.834 194.419 321.942 190.016 320.217 185.914C318.492 181.812 315.969 178.094 312.793 174.974C312.064 174.255 311.554 173.343 311.324 172.346C311.094 171.349 311.153 170.307 311.494 169.342C312.505 166.334 312.897 163.153 312.647 159.99C312.397 156.827 311.509 153.748 310.038 150.936C308.566 148.124 306.541 145.638 304.084 143.627C301.627 141.617 298.788 140.122 295.739 139.234C295.139 133.422 292.403 128.038 288.06 124.123C283.717 120.208 278.076 118.039 272.225 118.036C271.986 118.036 271.781 117.354 271.542 117.354C268.89 113.577 265.393 110.469 261.33 108.277C257.266 106.085 252.747 104.868 248.131 104.724H243.551C242.727 104.721 241.903 104.79 241.091 104.929C237.22 105.529 233.69 107.488 231.135 110.453C228.579 113.418 227.165 117.196 227.147 121.109V272.669C227.142 276.701 228.618 280.596 231.295 283.615C233.971 286.634 237.663 288.569 241.672 289.053C242.298 289.088 242.925 289.088 243.551 289.053H250.079C253.635 288.933 257.128 288.073 260.332 286.527L261.255 286.118H261.802C266.957 287.325 272.375 286.641 277.068 284.191C281.76 281.741 285.415 277.688 287.366 272.771H288.733C292.96 273.15 297.207 272.313 300.974 270.359C304.74 268.406 307.869 265.417 309.99 261.745C311.51 259 312.419 255.96 312.654 252.831C312.89 249.703 312.448 246.561 311.358 243.62C313.377 242.405 315.117 240.778 316.464 238.845C317.81 236.912 318.733 234.717 319.172 232.404C319.611 230.09 319.556 227.71 319.01 225.419C318.464 223.129 317.44 220.979 316.006 219.111C320.429 213.286 322.829 206.179 322.841 198.868Z" fill="#7BAC7A"/>
<path d="M312.588 198.869C312.581 194.42 311.689 190.016 309.964 185.915C308.239 181.813 305.716 178.094 302.54 174.974C301.811 174.255 301.302 173.344 301.072 172.346C300.842 171.349 300.9 170.307 301.241 169.342C302.252 166.334 302.644 163.153 302.394 159.99C302.144 156.828 301.256 153.748 299.785 150.936C298.313 148.124 296.288 145.638 293.831 143.628C291.374 141.617 288.536 140.123 285.486 139.235C284.886 133.422 282.15 128.038 277.807 124.123C273.464 120.208 267.823 118.04 261.973 118.037C261.733 118.037 261.528 117.354 261.289 117.354C258.925 114.046 255.918 111.247 252.448 109.124C248.978 107.001 245.115 105.597 241.091 104.997C237.231 105.596 233.711 107.545 231.157 110.496C228.603 113.447 227.181 117.208 227.147 121.109V272.669C227.163 276.536 228.541 280.273 231.041 283.226C233.541 286.178 237.002 288.157 240.817 288.815H241.672C244.936 288.459 248.115 287.547 251.07 286.118C252.954 286.618 254.897 286.859 256.846 286.835C257.992 286.829 259.135 286.727 260.264 286.528C260.744 286.391 261.236 286.299 261.733 286.255C266.691 286.886 271.716 285.818 275.987 283.226C280.259 280.634 283.523 276.671 285.247 271.986C297.072 271.986 298.165 269.324 302.335 261.746C305.753 255.465 303.087 249.013 301.105 243.62C303.124 242.405 304.864 240.778 306.211 238.845C307.558 236.913 308.48 234.718 308.919 232.404C309.358 230.091 309.303 227.711 308.757 225.42C308.211 223.129 307.188 220.979 305.753 219.111C310.176 213.286 312.576 206.179 312.588 198.869Z" fill="#589A57"/>
<path d="M233.982 220.783V285.64C229.847 284.923 233.025 285.845 230.564 282.636V220.783H233.982Z" fill="#5A9F59"/>
<path d="M257.906 162.753L255.206 165.791L246.354 170.229L233.982 172.993H227.147V162.753H257.906Z" fill="#5A9F59"/>
<path d="M200.318 104.724C199.807 104.673 199.291 104.673 198.78 104.724H194.2C189.59 104.86 185.075 106.066 181.012 108.247C176.948 110.427 173.449 113.521 170.789 117.285C170.55 117.285 170.345 117.627 170.106 117.627C164.268 117.69 158.654 119.884 154.323 123.795C149.992 127.706 147.243 133.063 146.592 138.859C143.252 139.851 140.171 141.565 137.569 143.879C134.966 146.193 132.905 149.052 131.532 152.251C130.158 155.45 129.507 158.911 129.623 162.39C129.739 165.868 130.621 169.279 132.204 172.379C125.296 177.842 120.808 185.792 119.703 194.522C118.597 203.253 120.963 212.068 126.292 219.076C124.87 220.945 123.858 223.092 123.321 225.377C122.785 227.662 122.736 230.034 123.177 232.339C123.619 234.644 124.541 236.831 125.885 238.757C127.228 240.683 128.962 242.304 130.974 243.517C130.084 245.945 129.622 248.509 129.607 251.095C129.616 256.904 131.93 262.473 136.043 266.581C140.156 270.689 145.732 273.001 151.548 273.01C152.693 273.012 153.836 272.921 154.966 272.737C156.618 276.804 159.457 280.282 163.114 282.717C166.771 285.152 171.077 286.432 175.472 286.391C177.231 286.49 178.995 286.398 180.735 286.118H181.247L181.794 286.357C185.149 288.013 188.82 288.932 192.56 289.053H199.805C203.411 288.657 206.76 287.002 209.262 284.378C211.763 281.755 213.256 278.333 213.476 274.717V119.675C213.294 116.065 211.895 112.623 209.506 109.908C207.117 107.194 203.879 105.366 200.318 104.724Z" fill="#7BAC7A"/>
<path d="M200.318 104.724C196.129 105.23 192.093 106.609 188.472 108.773C184.851 110.937 181.726 113.837 179.3 117.285C179.06 117.285 178.855 117.627 178.616 117.627C172.784 117.699 167.179 119.896 162.855 123.806C158.531 127.716 155.786 133.069 155.137 138.859C151.796 139.851 148.716 141.565 146.113 143.879C143.51 146.194 141.449 149.052 140.076 152.251C138.703 155.45 138.051 158.911 138.167 162.39C138.284 165.869 139.165 169.279 140.748 172.379C133.846 177.847 129.364 185.799 128.265 194.529C127.166 203.26 129.537 212.072 134.87 219.076C133.448 220.945 132.436 223.092 131.9 225.377C131.363 227.662 131.314 230.034 131.756 232.339C132.197 234.645 133.12 236.831 134.463 238.757C135.806 240.683 137.54 242.305 139.552 243.517C138.697 245.952 138.27 248.515 138.288 251.095C138.288 263.179 143.277 271.986 155.376 271.986C156.504 271.986 157.7 275.57 158.794 275.399C161.63 282.465 172.464 285.094 180.427 286.22C180.78 286.256 181.135 286.256 181.487 286.22C182.226 286.272 182.969 286.272 183.708 286.22C185.652 286.452 187.618 286.418 189.552 286.118C192.752 287.74 196.232 288.736 199.805 289.053C203.411 288.658 206.76 287.002 209.262 284.378C211.763 281.755 213.256 278.333 213.476 274.717V119.675C213.295 116.065 211.895 112.623 209.506 109.908C207.117 107.194 203.879 105.366 200.318 104.724Z" fill="#146112"/>
<path d="M200.318 104.724C196.126 105.234 192.089 106.619 188.467 108.789C184.846 110.959 181.723 113.865 179.3 117.319C179.06 117.319 178.855 117.661 178.616 117.661C172.789 117.732 167.188 119.925 162.865 123.828C158.542 127.731 155.794 133.075 155.137 138.859C151.796 139.851 148.716 141.565 146.113 143.879C143.51 146.194 141.449 149.052 140.076 152.251C138.703 155.45 138.051 158.911 138.167 162.39C138.284 165.869 139.165 169.279 140.748 172.379C133.836 177.848 129.348 185.807 128.249 194.545C127.149 203.284 129.527 212.104 134.87 219.11C133.448 220.979 132.436 223.126 131.9 225.411C131.363 227.696 131.314 230.068 131.756 232.373C132.197 234.679 133.12 236.865 134.463 238.791C135.806 240.717 137.54 242.339 139.552 243.551C138.697 245.986 138.27 248.549 138.288 251.129C138.288 263.213 143.277 271.986 155.376 271.986C156.504 271.986 157.7 275.57 158.794 275.399C161.63 282.465 172.464 285.094 180.427 286.22C180.78 286.256 181.135 286.256 181.487 286.22C182.226 286.272 182.969 286.272 183.708 286.22C185.65 286.464 187.617 286.441 189.552 286.152C192.754 287.762 196.234 288.747 199.805 289.053C203.411 288.658 206.76 287.002 209.262 284.378C211.763 281.755 213.256 278.333 213.476 274.717V119.709C213.302 116.093 211.906 112.643 209.517 109.922C207.127 107.2 203.884 105.368 200.318 104.724V104.724Z" fill="#589A57"/>
<path d="M206.641 220.783V285.64C210.058 284.923 207.598 285.845 210.058 282.636V220.783H206.641Z" fill="#5A9F59"/>
<path d="M182.717 162.753L185.417 165.791L194.269 170.229L206.641 172.993H213.476V162.753H182.717Z" fill="#5A9F59"/>
<path d="M198.78 104.724H194.2C189.591 104.863 185.076 106.07 181.014 108.25C176.951 110.43 173.451 113.523 170.79 117.285C170.55 117.285 170.345 117.627 170.106 117.627C164.268 117.69 158.654 119.884 154.323 123.795C149.992 127.706 147.243 133.064 146.593 138.859C143.253 139.847 140.173 141.557 137.57 143.868C134.967 146.179 132.906 149.034 131.533 152.231C130.159 155.427 129.507 158.886 129.623 162.363C129.74 165.839 130.621 169.247 132.204 172.345C125.287 177.809 120.792 185.765 119.686 194.504C118.58 203.243 120.952 212.066 126.292 219.076C124.865 220.943 123.848 223.09 123.309 225.376C122.769 227.662 122.719 230.036 123.161 232.343C123.603 234.649 124.527 236.837 125.873 238.763C127.22 240.688 128.958 242.308 130.974 243.517C129.622 247.093 129.236 250.962 129.855 254.734C130.474 258.506 132.077 262.049 134.501 265.007C136.926 267.965 140.087 270.233 143.667 271.584C147.247 272.935 151.121 273.321 154.898 272.703C156.554 276.768 159.394 280.242 163.05 282.677C166.706 285.111 171.01 286.393 175.403 286.357C177.335 286.498 179.278 286.384 181.179 286.015C184.694 287.797 188.553 288.798 192.492 288.951H198.78C202.56 288.8 206.15 287.26 208.863 284.626C211.575 281.993 213.218 278.452 213.476 274.683V119.675C213.262 115.825 211.653 112.185 208.949 109.433C206.244 106.682 202.63 105.008 198.78 104.724Z" stroke="#146112" stroke-linecap="round" stroke-linejoin="round"/>
<path d="M119.491 198.869C119.755 191.001 123.07 183.544 128.736 178.071C134.402 172.599 141.975 169.54 149.856 169.54C157.738 169.54 165.311 172.599 170.977 178.071C176.643 183.544 179.958 191.001 180.222 198.869" stroke="#146112" stroke-linecap="round" stroke-linejoin="round"/>
<path d="M132.99 202.214C132.988 198.883 133.748 195.596 135.211 192.602C136.674 189.609 138.801 186.989 141.432 184.941" stroke="#146112" stroke-linecap="round" stroke-linejoin="round"/>
<path d="M148.165 132.031C150.169 127.157 153.804 123.128 158.45 120.631C163.096 118.134 168.465 117.324 173.642 118.338C178.819 119.353 183.483 122.13 186.84 126.196C190.196 130.261 192.036 135.364 192.047 140.633" stroke="#146112" stroke-linecap="round" stroke-linejoin="round"/>
<path d="M140.475 231.024C142.933 229.977 145.68 229.82 148.242 230.579C150.804 231.338 153.021 232.965 154.51 235.181C156 237.396 156.67 240.062 156.403 242.717C156.137 245.373 154.952 247.853 153.052 249.73" stroke="#146112" stroke-linecap="round" stroke-linejoin="round"/>
<path d="M159.785 149.103C161.482 147.451 163.756 146.527 166.124 146.527C168.492 146.527 170.767 147.451 172.464 149.103" stroke="#146112" stroke-linecap="round" stroke-linejoin="round"/>
<path d="M163.168 260.383C164.871 258.69 167.175 257.74 169.576 257.74C171.978 257.74 174.281 258.69 175.984 260.383" stroke="#146112" stroke-linecap="round" stroke-linejoin="round"/>
<path d="M212.28 220.783H174.686C168.54 220.783 162.646 218.344 158.301 214.004C153.955 209.664 151.514 203.777 151.514 197.639V190.437" stroke="#146112" stroke-linecap="round" stroke-linejoin="round"/>
<path d="M212.28 170.229H195.568C192.848 170.229 190.24 169.15 188.318 167.229C186.395 165.309 185.315 162.704 185.315 159.988V156.779" stroke="#146112" stroke-linecap="round" stroke-linejoin="round"/>
<path d="M212.28 240.991H195.568C192.848 240.991 190.24 242.07 188.318 243.991C186.395 245.911 185.315 248.516 185.315 251.232V254.44" stroke="#146112" stroke-linecap="round" stroke-linejoin="round"/>
<path d="M191.979 281.475C190.533 281.662 189.064 281.54 187.669 281.115C186.275 280.691 184.987 279.974 183.891 279.013C182.796 278.052 181.918 276.869 181.317 275.542C180.716 274.215 180.405 272.776 180.405 271.32C180.405 269.863 180.716 268.424 181.317 267.097C181.918 265.771 182.796 264.587 183.891 263.626C184.987 262.665 186.275 261.948 187.669 261.524C189.064 261.099 190.533 260.977 191.979 261.164C192.885 261.164 193.755 261.524 194.396 262.164C195.037 262.804 195.397 263.673 195.397 264.578C195.397 265.483 195.037 266.352 194.396 266.992C193.755 267.632 192.885 267.991 191.979 267.991C191.478 267.878 190.959 267.878 190.458 267.992C189.958 268.106 189.49 268.331 189.088 268.651C188.687 268.971 188.363 269.377 188.14 269.839C187.918 270.301 187.802 270.807 187.802 271.32C187.802 271.832 187.918 272.338 188.14 272.8C188.363 273.262 188.687 273.668 189.088 273.988C189.49 274.308 189.958 274.533 190.458 274.647C190.959 274.762 191.478 274.762 191.979 274.648C192.885 274.648 193.755 275.007 194.396 275.648C195.037 276.288 195.397 277.156 195.397 278.061C195.397 278.967 195.037 279.835 194.396 280.475C193.755 281.115 192.885 281.475 191.979 281.475Z" fill="#7BAC7A"/>
<path d="M195.397 278.062C194.42 278.218 193.422 278.16 192.47 277.893C191.518 277.625 190.635 277.155 189.883 276.514C189.131 275.873 188.527 275.077 188.113 274.18C187.699 273.284 187.484 272.308 187.484 271.32C187.484 270.333 187.699 269.357 188.113 268.46C188.527 267.563 189.131 266.767 189.883 266.126C190.635 265.485 191.518 265.015 192.47 264.748C193.422 264.481 194.42 264.423 195.397 264.579" stroke="#146112" stroke-linecap="round" stroke-linejoin="round"/>
<path d="M199.805 200.302H213.476" stroke="#146112" stroke-linecap="round" stroke-linejoin="round"/>
<path d="M227.147 121.108V272.669C227.156 277.011 228.887 281.174 231.961 284.244C235.036 287.315 239.203 289.044 243.551 289.053H250.079C253.994 288.891 257.829 287.89 261.323 286.118C263.208 286.613 265.15 286.854 267.099 286.835C271.52 286.831 275.839 285.501 279.495 283.018C283.151 280.535 285.976 277.013 287.605 272.907H288.972C293.175 273.23 297.383 272.352 301.105 270.376C304.826 268.399 307.908 265.406 309.991 261.745C311.516 259.008 312.428 255.973 312.664 252.849C312.9 249.726 312.454 246.588 311.358 243.654C313.387 242.443 315.135 240.816 316.489 238.881C317.842 236.946 318.769 234.746 319.208 232.426C319.647 230.107 319.589 227.72 319.037 225.425C318.485 223.13 317.452 220.978 316.006 219.11C320.846 212.717 323.237 204.806 322.748 196.806C322.259 188.806 318.922 181.244 313.34 175.486C312.459 174.569 311.841 173.432 311.552 172.195C311.264 170.957 311.315 169.665 311.699 168.454C313.335 162.938 312.894 157.014 310.457 151.801C308.02 146.588 303.758 142.445 298.473 140.156C297.628 139.816 296.877 139.279 296.283 138.59C295.688 137.902 295.267 137.081 295.055 136.196C293.851 131.005 290.922 126.373 286.745 123.057C282.568 119.741 277.39 117.935 272.055 117.934C271.815 117.934 271.61 117.217 271.371 117.251C268.723 113.518 265.249 110.445 261.218 108.272C257.187 106.1 252.709 104.885 248.131 104.724H243.551C239.203 104.733 235.036 106.462 231.961 109.533C228.887 112.603 227.156 116.766 227.147 121.108Z" stroke="#146112" stroke-linecap="round" stroke-linejoin="round"/>
<path d="M322.841 198.869C322.577 191.001 319.262 183.544 313.596 178.071C307.93 172.599 300.357 169.54 292.475 169.54C284.593 169.54 277.02 172.599 271.354 178.071C265.689 183.544 262.374 191.001 262.109 198.869" stroke="#146112" stroke-linecap="round" stroke-linejoin="round"/>
<path d="M309.341 202.214C309.343 198.883 308.584 195.596 307.121 192.602C305.658 189.609 303.53 186.989 300.9 184.941" stroke="#146112" stroke-linecap="round" stroke-linejoin="round"/>
<path d="M294.167 132.031C292.163 127.157 288.528 123.128 283.882 120.631C279.236 118.134 273.867 117.324 268.69 118.338C263.513 119.353 258.848 122.13 255.492 126.196C252.135 130.261 250.295 135.364 250.284 140.633" stroke="#146112" stroke-linecap="round" stroke-linejoin="round"/>
<path d="M301.856 231.024C299.398 229.977 296.652 229.82 294.09 230.579C291.528 231.338 289.311 232.965 287.821 235.181C286.331 237.396 285.662 240.062 285.928 242.717C286.194 245.373 287.38 247.853 289.28 249.73" stroke="#146112" stroke-linecap="round" stroke-linejoin="round"/>
<path d="M282.547 149.103C280.844 147.41 278.54 146.46 276.139 146.46C273.737 146.46 271.434 147.41 269.731 149.103" stroke="#146112" stroke-linecap="round" stroke-linejoin="round"/>
<path d="M279.163 260.383C277.46 258.69 275.156 257.74 272.755 257.74C270.354 257.74 268.05 258.69 266.347 260.383" stroke="#146112" stroke-linecap="round" stroke-linejoin="round"/>
<path d="M230.052 220.783H267.646C273.791 220.783 279.685 218.344 284.031 214.004C288.376 209.664 290.817 203.777 290.817 197.639V190.437" stroke="#146112" stroke-linecap="round" stroke-linejoin="round"/>
<path d="M257.051 156.745V159.954C257.051 162.67 255.971 165.275 254.048 167.195C252.125 169.115 249.517 170.194 246.798 170.194H230.052" stroke="#146112" stroke-linecap="round" stroke-linejoin="round"/>
<path d="M230.052 240.991H246.764C249.483 240.991 252.091 242.07 254.014 243.991C255.937 245.911 257.017 248.516 257.017 251.232V254.44" stroke="#146112" stroke-linecap="round" stroke-linejoin="round"/>
<path d="M250.353 281.475C249.446 281.475 248.577 281.115 247.936 280.475C247.295 279.835 246.935 278.967 246.935 278.061C246.935 277.156 247.295 276.288 247.936 275.648C248.577 275.007 249.446 274.648 250.353 274.648C250.853 274.762 251.373 274.762 251.873 274.647C252.374 274.533 252.842 274.308 253.243 273.988C253.645 273.668 253.969 273.262 254.191 272.8C254.414 272.338 254.53 271.832 254.53 271.32C254.53 270.807 254.414 270.301 254.191 269.839C253.969 269.377 253.645 268.971 253.243 268.651C252.842 268.331 252.374 268.106 251.873 267.992C251.373 267.878 250.853 267.878 250.353 267.991C249.446 267.991 248.577 267.632 247.936 266.992C247.295 266.352 246.935 265.483 246.935 264.578C246.935 263.673 247.295 262.804 247.936 262.164C248.577 261.524 249.446 261.164 250.353 261.164C251.798 260.977 253.268 261.099 254.662 261.524C256.057 261.948 257.345 262.665 258.44 263.626C259.536 264.587 260.413 265.771 261.014 267.097C261.615 268.424 261.926 269.863 261.926 271.32C261.926 272.776 261.615 274.215 261.014 275.542C260.413 276.869 259.536 278.052 258.44 279.013C257.345 279.974 256.057 280.691 254.662 281.115C253.268 281.54 251.798 281.662 250.353 281.475V281.475Z" fill="#7BAC7A"/>
<path d="M246.935 278.061C248.541 277.806 250.002 276.986 251.058 275.75C252.113 274.515 252.693 272.944 252.693 271.32C252.693 269.696 252.113 268.125 251.058 266.889C250.002 265.653 248.541 264.834 246.935 264.578" stroke="#146112" stroke-linecap="round" stroke-linejoin="round"/>
<path d="M240.817 200.302H227.147" stroke="#146112" stroke-linecap="round" stroke-linejoin="round"/>
<g clip-path="url(#clip0_702_401)">
<path d="M398.26 135.443C405.957 140.349 408.214 150.547 403.311 158.22C394.432 172.117 375.445 171.15 352.653 176.18C347.619 153.414 338.76 136.632 347.64 122.735C352.542 115.062 362.752 112.811 370.433 117.707C377.39 122.141 378.648 127.833 377.688 136.998C385.605 132.267 391.304 131.009 398.26 135.443Z" fill="#C82626"/>
</g>
<g clip-path="url(#clip1_702_401)">
<path d="M376.506 341.41L372.643 337.641L389.624 320.275L393.488 324.044C394.512 325.044 395.097 326.409 395.114 327.84C395.131 329.27 394.578 330.649 393.578 331.672L384.144 341.32C383.143 342.343 381.776 342.928 380.344 342.945C378.911 342.961 377.531 342.409 376.506 341.41Z" fill="#2BA429"/>
<path d="M374.439 328.083L380.1 322.294L347.259 290.257L341.599 296.046L374.439 328.083Z" fill="#2A8F27"/>
<path d="M368.779 333.871L374.439 328.083L341.599 296.046L335.938 301.834L368.779 333.871Z" fill="#2A8F27"/>
<path d="M380.1 322.294L385.76 316.506L352.92 284.469L347.259 290.257L380.1 322.294Z" fill="#2A8F27"/>
<path d="M372.643 337.64L389.624 320.275L385.76 316.506L368.779 333.871L372.643 337.64Z" fill="#FFE94F"/>
<path d="M352.92 284.469L332.838 281.844L335.938 301.834L352.92 284.469Z" fill="#FFE94F"/>
<path d="M335.069 296.933L347.805 283.909L352.92 284.469L335.938 301.834L335.069 296.933Z" fill="#DEB142"/>
<path d="M334.13 290.173L341.205 282.938L332.838 281.844L334.13 290.173Z" fill="#2BA429"/>
<path d="M385.109 342.262L394.544 332.614C395.795 331.335 396.486 329.612 396.464 327.824C396.443 326.035 395.712 324.329 394.431 323.079L353.863 283.504C353.752 283.392 353.617 283.306 353.469 283.251C353.469 283.251 353.469 283.251 353.411 283.195C353.333 283.156 353.248 283.131 353.162 283.121L341.447 281.59L333.08 280.497C332.872 280.469 332.661 280.491 332.463 280.56C332.265 280.628 332.085 280.742 331.939 280.892C331.792 281.041 331.683 281.223 331.619 281.422C331.555 281.622 331.538 281.833 331.571 282.04L332.862 290.369L334.671 302.03C334.683 302.116 334.71 302.2 334.75 302.277C334.75 302.277 334.75 302.277 334.808 302.334C334.833 302.501 334.897 302.66 334.995 302.799L375.563 342.374C376.844 343.623 378.569 344.314 380.359 344.293C382.15 344.272 383.858 343.541 385.109 342.262ZM347.282 292.164L378.191 322.317L374.417 326.176L343.508 296.023L347.282 292.164ZM352.942 286.376L383.851 316.528L380.077 320.387L349.169 290.235L352.942 286.376ZM370.688 333.849L385.783 318.413L387.715 320.297L372.62 335.733L370.688 333.849ZM372.53 328.105L368.757 331.964L337.848 301.811L341.621 297.953L372.53 328.105ZM392.544 325.009C393.313 325.758 393.752 326.782 393.764 327.855C393.777 328.928 393.362 329.962 392.612 330.73L383.178 340.377C382.427 341.145 381.402 341.583 380.328 341.596C379.253 341.608 378.218 341.194 377.45 340.445L374.552 337.618L389.647 322.182L392.544 325.009ZM338.353 283.925L335.051 287.301L334.451 283.418L338.353 283.925ZM335.567 290.633L341.7 284.362L350.067 285.456L336.859 298.962L335.567 290.633Z" fill="#001C63"/>
<path d="M387.558 328.176C387.036 328.709 387.046 329.563 387.58 330.084C388.114 330.605 388.969 330.595 389.491 330.062C390.012 329.528 390.002 328.674 389.468 328.153C388.934 327.633 388.079 327.643 387.558 328.176Z" fill="#001C63"/>
</g>
<path d="M110.562 276.25L57.1259 329.622L66.3581 338.843L119.794 285.471L110.562 276.25Z" fill="#69BFE3"/>
<path d="M110.551 276.243L106.742 280.048L111.358 284.658L115.974 289.269L119.784 285.464L110.551 276.243Z" fill="#2890BD"/>
<path d="M50.1661 267.563V345.779H128.477L50.1661 267.563ZM63.2224 299.039L96.977 332.752H63.2224V299.039Z" fill="white"/>
<path d="M123.076 345.779L50.1661 272.958V267.563L128.477 345.779H123.076Z" fill="#68B2D1"/>
<path d="M85.676 319.55L76.4542 310.339L64.1945 298.094C64.005 297.909 63.7649 297.783 63.5043 297.733C63.2436 297.683 62.974 297.711 62.7291 297.813C62.4841 297.915 62.2748 298.087 62.1272 298.308C61.9796 298.528 61.9003 298.787 61.8992 299.052V332.766C61.8992 333.123 62.0415 333.466 62.2947 333.719C62.5479 333.972 62.8913 334.114 63.2494 334.114H97.004C97.2694 334.113 97.5286 334.034 97.7492 333.887C97.9698 333.739 98.142 333.53 98.2443 333.285C98.3466 333.041 98.3744 332.771 98.3243 332.511C98.2742 332.251 98.1484 332.011 97.9626 331.822L85.676 319.563V319.55ZM73.5243 311.283L64.5186 320.265V302.288L73.5243 311.283ZM64.5186 324.081L75.4281 313.185L82.7461 320.507L71.8366 331.39H64.5726L64.5186 324.081ZM75.6576 331.39L84.6633 322.409L93.6555 331.39H75.6576Z" fill="#267394"/>
<path d="M129.435 344.821L95.8429 311.283L120.74 286.443C120.867 286.317 120.967 286.168 121.036 286.004C121.104 285.839 121.14 285.663 121.14 285.485C121.14 285.307 121.104 285.131 121.036 284.966C120.967 284.802 120.867 284.653 120.74 284.528L111.505 275.29C111.379 275.164 111.23 275.063 111.066 274.995C110.901 274.926 110.725 274.891 110.546 274.891C110.368 274.891 110.192 274.926 110.027 274.995C109.863 275.063 109.713 275.164 109.588 275.29L84.7038 300.157L51.1248 266.605C50.9349 266.418 50.6938 266.292 50.4319 266.241C50.17 266.191 49.899 266.219 49.6531 266.322C49.4065 266.423 49.1955 266.595 49.0465 266.816C48.8975 267.037 48.8173 267.297 48.816 267.563V345.779C48.816 346.136 48.9582 346.479 49.2114 346.732C49.4646 346.985 49.8081 347.127 50.1662 347.127H128.477C128.743 347.126 129.004 347.046 129.225 346.897C129.446 346.748 129.618 346.537 129.719 346.291C129.822 346.046 129.851 345.775 129.8 345.513C129.75 345.252 129.623 345.011 129.435 344.821ZM110.533 278.149L117.864 285.472L113.719 289.612L111.802 287.697C111.681 287.556 111.532 287.441 111.365 287.36C111.197 287.279 111.015 287.234 110.829 287.226C110.643 287.219 110.457 287.25 110.284 287.318C110.111 287.386 109.953 287.489 109.822 287.62C109.69 287.752 109.587 287.909 109.519 288.082C109.451 288.255 109.42 288.44 109.427 288.626C109.434 288.812 109.48 288.994 109.561 289.161C109.642 289.329 109.757 289.477 109.898 289.598L111.802 291.513L106.091 297.231L104.173 295.33C104.048 295.203 103.899 295.103 103.734 295.034C103.57 294.966 103.393 294.931 103.215 294.931C103.037 294.931 102.86 294.966 102.696 295.034C102.531 295.103 102.382 295.203 102.256 295.33C102.005 295.582 101.864 295.924 101.864 296.28C101.864 296.637 102.005 296.978 102.256 297.231L104.173 299.146L98.4487 304.864L96.5314 302.949C96.4056 302.823 96.2561 302.723 96.0916 302.655C95.9271 302.587 95.7509 302.552 95.5728 302.552C95.3948 302.552 95.2185 302.587 95.054 302.655C94.8895 302.723 94.7401 302.823 94.6142 302.949C94.4883 303.075 94.3884 303.224 94.3203 303.388C94.2522 303.552 94.2171 303.728 94.2171 303.906C94.2171 304.084 94.2522 304.26 94.3203 304.424C94.3884 304.589 94.4883 304.738 94.6142 304.864L96.5314 306.765L93.9391 309.368L86.6211 302.059L110.533 278.149ZM108.224 344.43V341.733C108.224 341.375 108.082 341.032 107.829 340.78C107.575 340.527 107.232 340.385 106.874 340.385C106.516 340.385 106.172 340.527 105.919 340.78C105.666 341.032 105.524 341.375 105.524 341.733V344.43H97.4226V341.733C97.4226 341.375 97.2803 341.032 97.0271 340.78C96.7739 340.527 96.4305 340.385 96.0724 340.385C95.7143 340.385 95.3709 340.527 95.1177 340.78C94.8645 341.032 94.7222 341.375 94.7222 341.733V344.43H86.6211V341.733C86.6211 341.375 86.4789 341.032 86.2256 340.78C85.9724 340.527 85.629 340.385 85.2709 340.385C84.9128 340.385 84.5694 340.527 84.3162 340.78C84.063 341.032 83.9207 341.375 83.9207 341.733V344.43H75.8196V341.733C75.8196 341.375 75.6774 341.032 75.4242 340.78C75.171 340.527 74.8275 340.385 74.4695 340.385C74.1114 340.385 73.7679 340.527 73.5147 340.78C73.2615 341.032 73.1193 341.375 73.1193 341.733V344.43H65.0182V341.733C65.0182 341.375 64.8759 341.032 64.6227 340.78C64.3695 340.527 64.0261 340.385 63.668 340.385C63.3099 340.385 62.9665 340.527 62.7133 340.78C62.4601 341.032 62.3178 341.375 62.3178 341.733V344.43H51.5163V332.293H54.2167C54.5748 332.293 54.9182 332.151 55.1714 331.898C55.4246 331.645 55.5669 331.302 55.5669 330.945C55.5669 330.587 55.4246 330.244 55.1714 329.991C54.9182 329.738 54.5748 329.596 54.2167 329.596H51.5163V321.505H54.2167C54.5748 321.505 54.9182 321.363 55.1714 321.11C55.4246 320.857 55.5669 320.514 55.5669 320.156C55.5669 319.799 55.4246 319.456 55.1714 319.203C54.9182 318.95 54.5748 318.808 54.2167 318.808H51.5163V310.716H54.2167C54.5748 310.716 54.9182 310.574 55.1714 310.321C55.4246 310.069 55.5669 309.726 55.5669 309.368C55.5669 309.01 55.4246 308.667 55.1714 308.414C54.9182 308.161 54.5748 308.019 54.2167 308.019H51.5163V299.928H54.2167C54.5748 299.928 54.9182 299.786 55.1714 299.533C55.4246 299.28 55.5669 298.937 55.5669 298.58C55.5669 298.222 55.4246 297.879 55.1714 297.626C54.9182 297.373 54.5748 297.231 54.2167 297.231H51.5163V289.14H54.2167C54.5748 289.14 54.9182 288.998 55.1714 288.745C55.4246 288.492 55.5669 288.149 55.5669 287.791C55.5669 287.433 55.4246 287.09 55.1714 286.838C54.9182 286.585 54.5748 286.443 54.2167 286.443H51.5163V270.813L125.223 344.43H108.224Z" fill="#267394"/>
<g clip-path="url(#clip2_702_401)">
<path d="M70.6808 153.356L71.8098 155.149L71.8103 155.15L72.7129 156.589L72.7131 156.589L74.074 158.756L74.074 158.756L74.0742 158.757L74.0744 158.757L74.0746 158.757L74.0748 158.757L74.0751 158.758L74.0753 158.758L74.0755 158.758L74.0757 158.759L74.0759 158.759L74.0761 158.759L74.0763 158.759L74.0765 158.76L74.0767 158.76L74.077 158.76L74.0772 158.761L74.0774 158.761L74.0776 158.761L74.0778 158.761L74.078 158.762L74.0782 158.762L74.0784 158.762L74.0787 158.763L74.0789 158.763L74.0791 158.763L74.0793 158.763L74.0795 158.764L74.0797 158.764L74.0799 158.764L74.0801 158.764L74.0803 158.765L74.0806 158.765L74.0808 158.765L74.081 158.766L74.0812 158.766L74.0814 158.766L74.0816 158.766L74.0818 158.767L74.082 158.767L74.0823 158.767L74.0825 158.768L74.0827 158.768L74.0829 158.768L74.0831 158.768L74.0833 158.769L74.0835 158.769L74.0837 158.769L74.0839 158.769L74.0842 158.77L74.0844 158.77L74.0846 158.77L74.0848 158.771L74.085 158.771L74.0852 158.771L74.0854 158.771L74.0856 158.772L74.0859 158.772L74.0861 158.772L74.0863 158.773L74.0865 158.773L74.0867 158.773L74.0869 158.773L74.0871 158.774L74.0873 158.774L74.0876 158.774L74.0878 158.775L74.088 158.775L74.0882 158.775L74.0884 158.775L74.0886 158.776L74.0888 158.776L74.089 158.776L74.0893 158.777L74.0895 158.777L74.0897 158.777L74.0899 158.777L74.0901 158.778L74.0903 158.778L74.0905 158.778L74.0908 158.778L74.091 158.779L74.0912 158.779L74.0914 158.779L74.0916 158.78L74.0918 158.78L74.092 158.78L74.0922 158.78L74.0925 158.781L74.0927 158.781L74.0929 158.781L74.0931 158.782L74.0933 158.782L74.0935 158.782L74.0937 158.782L74.0939 158.783L74.0942 158.783L74.0944 158.783L74.0946 158.784L74.0948 158.784L74.095 158.784L74.0952 158.784L74.0954 158.785L74.0957 158.785L74.0959 158.785L74.0961 158.786L74.0963 158.786L74.0965 158.786L74.0967 158.786L74.0969 158.787L74.0972 158.787L74.0974 158.787L74.0976 158.788L74.0978 158.788L74.098 158.788L74.0982 158.788L74.0984 158.789L74.0986 158.789L74.0989 158.789L74.0991 158.789L74.0993 158.79L74.0995 158.79L74.0997 158.79L74.0999 158.791L74.1001 158.791L74.1004 158.791L74.1006 158.791L74.1008 158.792L74.101 158.792L74.1012 158.792L74.1014 158.793L74.1016 158.793L74.1019 158.793L74.1021 158.793L74.1023 158.794L74.1025 158.794L74.1027 158.794L74.1029 158.795L74.1031 158.795L74.1033 158.795L74.1036 158.795L74.1038 158.796L74.104 158.796L74.1042 158.796L74.1044 158.797L74.1046 158.797L74.1048 158.797L74.1051 158.797L74.1053 158.798L74.1055 158.798L74.1057 158.798L74.1059 158.799L74.1061 158.799L74.1063 158.799L74.1066 158.799L74.1068 158.8L74.107 158.8L74.1072 158.8L74.1074 158.8L74.1076 158.801L74.1078 158.801L74.1081 158.801L74.1083 158.802L74.1085 158.802L74.1087 158.802L74.1089 158.802L74.1091 158.803L74.1093 158.803L74.1096 158.803L74.1098 158.804L74.11 158.804L74.1102 158.804L74.1104 158.804L74.1106 158.805L74.1108 158.805L74.1111 158.805L74.1113 158.806L74.1115 158.806L74.1117 158.806L74.1119 158.806L74.1121 158.807L74.1123 158.807L74.1126 158.807L74.1128 158.808L74.113 158.808L74.1132 158.808L74.1134 158.808L74.1136 158.809L74.1138 158.809L74.1141 158.809L74.1143 158.81L74.1145 158.81L74.1147 158.81L74.1149 158.81L74.1151 158.811L74.1153 158.811L74.1156 158.811L74.1158 158.812L74.116 158.812L74.1162 158.812L74.1164 158.812L74.1166 158.813L74.1168 158.813L74.1171 158.813L74.1173 158.814L74.1175 158.814L74.1177 158.814L74.1179 158.814L74.1181 158.815L74.1183 158.815L74.1186 158.815L74.1188 158.815L74.119 158.816L74.1192 158.816L74.1194 158.816L74.1196 158.817L74.1198 158.817L74.1201 158.817L74.1203 158.817L74.1205 158.818L74.1207 158.818L74.1209 158.818L74.1211 158.819L74.1213 158.819L74.1216 158.819L74.1218 158.819L74.122 158.82L74.1222 158.82L74.1224 158.82L74.1226 158.821L74.1228 158.821L74.1231 158.821L74.1233 158.821L74.1235 158.822L74.1237 158.822L74.1239 158.822L74.1241 158.823L74.1243 158.823L74.1245 158.823L74.1248 158.823L74.125 158.824L74.1252 158.824L74.1254 158.824L74.1256 158.825L74.1258 158.825L74.126 158.825L74.1263 158.825L74.1265 158.826L74.1267 158.826L74.1269 158.826L74.1271 158.827L74.1273 158.827L74.1275 158.827L74.1278 158.827L74.128 158.828L74.1282 158.828L74.1284 158.828L74.1286 158.828L74.1288 158.829L74.129 158.829L74.1293 158.829L74.1295 158.83L74.1297 158.83L74.1299 158.83L74.1301 158.83L74.1303 158.831L74.1305 158.831L74.1308 158.831L74.131 158.832L74.1312 158.832L74.1314 158.832L74.1316 158.832L74.1318 158.833L74.132 158.833L74.1322 158.833L74.1325 158.834L74.1327 158.834L74.1329 158.834L74.1331 158.834L74.1333 158.835L74.1335 158.835L74.1337 158.835L74.134 158.836L74.1342 158.836L74.1344 158.836L74.1346 158.836L74.1348 158.837L74.135 158.837L74.1352 158.837L74.1354 158.838L74.1357 158.838L74.1359 158.838L74.1361 158.838L74.1363 158.839L74.1365 158.839L74.1367 158.839L74.1369 158.839L74.1372 158.84L74.1374 158.84L74.1376 158.84L74.1378 158.841L74.138 158.841L74.1382 158.841L74.1384 158.841L74.1386 158.842L74.1389 158.842L74.1391 158.842L74.1393 158.843L74.1395 158.843L74.1397 158.843L74.1399 158.843L74.1401 158.844L74.1404 158.844L74.1406 158.844L74.1408 158.845L74.141 158.845L74.1412 158.845L74.1414 158.845L74.1416 158.846L74.1418 158.846L74.1421 158.846L74.1423 158.847L74.1425 158.847L74.1427 158.847L74.1429 158.847L74.1431 158.848L74.1433 158.848L74.1435 158.848L74.1438 158.848L74.144 158.849L74.1442 158.849L74.1444 158.849L74.1446 158.85L74.1448 158.85L74.145 158.85L74.1452 158.85L74.1455 158.851L74.1457 158.851L74.1459 158.851L74.1461 158.852L74.1463 158.852L74.1465 158.852L74.1467 158.852L74.1469 158.853L74.1472 158.853L74.1474 158.853L74.1476 158.854L74.1478 158.854L74.148 158.854L74.1482 158.854L74.1484 158.855L74.1486 158.855L74.1488 158.855L74.1491 158.856L74.1493 158.856L74.1495 158.856L74.1497 158.856L74.1499 158.857L74.1501 158.857L74.1503 158.857L74.1505 158.857L74.1508 158.858L74.151 158.858L74.1512 158.858L74.1514 158.859L74.1516 158.859L74.1518 158.859L74.152 158.859L74.1522 158.86L74.1524 158.86L74.1527 158.86L74.1529 158.861L74.1531 158.861L74.1533 158.861L74.1535 158.861L74.1537 158.862L74.1539 158.862L74.1541 158.862L74.1543 158.862L74.1546 158.863L74.1548 158.863L74.155 158.863L74.1552 158.864L74.1554 158.864L74.1556 158.864L74.1558 158.864L74.156 158.865L74.1562 158.865L74.1565 158.865L74.1567 158.866L74.1569 158.866L74.1571 158.866L74.1573 158.866L74.1575 158.867L74.1577 158.867L74.1579 158.867L74.1581 158.867L74.1584 158.868L74.1586 158.868L74.1588 158.868L74.159 158.869L74.1592 158.869L74.1594 158.869L74.1596 158.869L74.1598 158.87L74.16 158.87L74.1602 158.87L74.1605 158.871L74.1607 158.871L74.1609 158.871L74.1611 158.871L74.1613 158.872L74.1615 158.872L74.1617 158.872L74.1619 158.872L74.1621 158.873L74.1623 158.873L74.1626 158.873L74.1628 158.874L74.163 158.874L74.1632 158.874L74.1634 158.874L74.1636 158.875L74.1638 158.875L74.164 158.875L74.1642 158.876L74.1644 158.876L74.1646 158.876L74.1649 158.876L74.1651 158.877L74.1653 158.877L74.1655 158.877L74.1657 158.877L74.1659 158.878L74.1661 158.878L74.1663 158.878L74.1665 158.879L74.1667 158.879L74.1669 158.879L74.1672 158.879L74.1674 158.88L74.1676 158.88L74.1678 158.88L74.168 158.88L74.1682 158.881L74.1684 158.881L74.1686 158.881L74.1688 158.882L74.169 158.882L74.1692 158.882L74.1694 158.882L74.1816 158.899L74.1925 158.916C77.3568 163.881 82.3624 167.391 88.113 168.678C93.8635 169.965 99.8904 168.924 104.874 165.781L104.875 165.781L106.627 164.683L70.6808 153.356ZM70.6808 153.356L76.1998 149.897L76.2004 149.897C79.6994 147.696 83.7458 146.52 87.8805 146.5L87.882 146.5C91.6701 146.47 95.4028 147.409 98.7251 149.227C102.047 151.045 104.849 153.681 106.863 156.885C106.863 156.885 106.863 156.885 106.863 156.886L108.001 158.705C108.002 158.705 108.002 158.705 108.002 158.705C108.611 159.68 108.809 160.857 108.551 161.977C108.294 163.098 107.602 164.071 106.627 164.683L70.6808 153.356Z" fill="#E38466" stroke="#AA4545"/>
<path d="M68.041 193.595L68.0412 193.595C71.8689 190.146 74.3844 185.481 75.1611 180.392C75.9378 175.302 74.9283 170.101 72.3039 165.671C71.5729 164.452 70.7267 163.306 69.7767 162.249L69.7627 162.233L69.75 162.216L69.7498 162.216L69.7496 162.216L69.7494 162.215L69.7492 162.215L69.749 162.215L69.7487 162.215L69.7485 162.214L69.7483 162.214L69.7481 162.214L69.7479 162.213L69.7477 162.213L69.7475 162.213L69.7473 162.213L69.7471 162.212L69.7469 162.212L69.7467 162.212L69.7464 162.212L69.7462 162.211L69.746 162.211L69.7458 162.211L69.7456 162.21L69.7454 162.21L69.7452 162.21L69.745 162.21L69.7448 162.209L69.7446 162.209L69.7444 162.209L69.7441 162.208L69.7439 162.208L69.7437 162.208L69.7435 162.208L69.7433 162.207L69.7431 162.207L69.7429 162.207L69.7427 162.207L69.7425 162.206L69.7423 162.206L69.7421 162.206L69.7418 162.205L69.7416 162.205L69.7414 162.205L69.7412 162.205L69.741 162.204L69.7408 162.204L69.7406 162.204L69.7404 162.203L69.7402 162.203L69.74 162.203L69.7397 162.203L69.7395 162.202L69.7393 162.202L69.7391 162.202L69.7389 162.202L69.7387 162.201L69.7385 162.201L69.7383 162.201L69.7381 162.2L69.7378 162.2L69.7376 162.2L69.7374 162.2L69.7372 162.199L69.737 162.199L69.7368 162.199L69.7366 162.198L69.7364 162.198L69.7362 162.198L69.736 162.198L69.7357 162.197L69.7355 162.197L69.7353 162.197L69.7351 162.197L69.7349 162.196L69.7347 162.196L69.7345 162.196L69.7343 162.195L69.7341 162.195L69.7338 162.195L69.7336 162.195L69.7334 162.194L69.7332 162.194L69.733 162.194L69.7328 162.193L69.7326 162.193L69.7324 162.193L69.7322 162.193L69.7319 162.192L69.7317 162.192L69.7315 162.192L69.7313 162.192L69.7311 162.191L69.7309 162.191L69.7307 162.191L69.7305 162.19L69.7302 162.19L69.73 162.19L69.7298 162.19L69.7296 162.189L69.7294 162.189L69.7292 162.189L69.729 162.188L69.7288 162.188L69.7286 162.188L69.7283 162.188L69.7281 162.187L69.7279 162.187L69.7277 162.187L69.7275 162.186L69.7273 162.186L69.7271 162.186L69.7269 162.186L69.7266 162.185L69.7264 162.185L69.7262 162.185L69.726 162.185L69.7258 162.184L69.7256 162.184L69.7254 162.184L69.7252 162.183L69.7249 162.183L69.7247 162.183L69.7245 162.183L69.7243 162.182L69.7241 162.182L69.7239 162.182L69.7237 162.181L69.7235 162.181L69.7232 162.181L69.723 162.181L69.7228 162.18L69.7226 162.18L69.7224 162.18L69.7222 162.179L69.722 162.179L69.7218 162.179L69.7215 162.179L69.7213 162.178L69.7211 162.178L69.7209 162.178L69.7207 162.177L69.7205 162.177L69.7203 162.177L69.72 162.177L69.7198 162.176L69.7196 162.176L69.7194 162.176L69.7192 162.176L69.719 162.175L69.7188 162.175L69.7186 162.175L69.7183 162.174L69.7181 162.174L69.7179 162.174L69.7177 162.174L69.7175 162.173L69.7173 162.173L69.7171 162.173L69.7169 162.172L69.7166 162.172L69.7164 162.172L69.7162 162.172L69.716 162.171L69.7158 162.171L69.7156 162.171L69.7154 162.17L69.7151 162.17L69.7149 162.17L69.7147 162.17L69.7145 162.169L69.7143 162.169L69.7141 162.169L69.7139 162.168L69.7137 162.168L69.7134 162.168L69.7132 162.168L69.713 162.167L69.7128 162.167L69.7126 162.167L69.7124 162.167L69.7122 162.166L69.7119 162.166L69.7117 162.166L69.7115 162.165L69.7113 162.165L69.7111 162.165L69.7109 162.165L69.7107 162.164L69.7104 162.164L69.7102 162.164L69.71 162.163L69.7098 162.163L69.7096 162.163L69.7094 162.163L69.7092 162.162L69.7089 162.162L69.7087 162.162L69.7085 162.161L69.7083 162.161L69.7081 162.161L69.7079 162.161L69.7077 162.16L69.7075 162.16L69.7072 162.16L69.707 162.159L69.7068 162.159L69.7066 162.159L69.7064 162.159L69.7062 162.158L69.706 162.158L69.7057 162.158L69.7055 162.157L69.7053 162.157L69.7051 162.157L69.7049 162.157L69.7047 162.156L69.7045 162.156L69.7042 162.156L69.704 162.155L69.7038 162.155L69.7036 162.155L69.7034 162.155L69.7032 162.154L69.703 162.154L69.7027 162.154L69.7025 162.154L69.7023 162.153L69.7021 162.153L69.7019 162.153L69.7017 162.152L69.7015 162.152L69.7012 162.152L69.701 162.152L69.7008 162.151L69.7006 162.151L69.7004 162.151L69.7002 162.15L69.7 162.15L69.6997 162.15L69.6995 162.15L69.6993 162.149L69.6991 162.149L69.6989 162.149L69.6987 162.148L69.6985 162.148L69.6982 162.148L69.698 162.148L69.6978 162.147L69.6976 162.147L69.6974 162.147L69.6972 162.146L69.697 162.146L69.6967 162.146L69.6965 162.146L69.6963 162.145L69.6961 162.145L69.6959 162.145L69.6957 162.144L69.6955 162.144L69.6952 162.144L69.695 162.144L69.6948 162.143L69.6946 162.143L69.6944 162.143L69.6942 162.142L69.694 162.142L69.6937 162.142L69.6935 162.142L69.6933 162.141L69.6931 162.141L69.6929 162.141L69.6927 162.14L69.6925 162.14L69.6922 162.14L69.692 162.14L69.6918 162.139L69.6916 162.139L69.6914 162.139L69.6912 162.139L69.691 162.138L69.6907 162.138L69.6905 162.138L69.6903 162.137L69.6901 162.137L69.6899 162.137L69.6897 162.137L69.6895 162.136L69.6892 162.136L69.689 162.136L69.6888 162.135L69.6886 162.135L69.6884 162.135L69.6882 162.135L69.688 162.134L69.6877 162.134L69.6875 162.134L69.6873 162.133L69.6871 162.133L69.6869 162.133L69.6867 162.133L69.6865 162.132L69.6863 162.132L69.686 162.132L69.6858 162.131L69.6856 162.131L69.6854 162.131L69.6852 162.131L69.685 162.13L69.6848 162.13L69.6845 162.13L69.6843 162.129L69.6841 162.129L69.6839 162.129L69.6837 162.129L69.6835 162.128L69.6833 162.128L69.683 162.128L69.6828 162.127L69.6826 162.127L69.6824 162.127L69.6822 162.127L69.682 162.126L69.6818 162.126L69.6815 162.126L69.6813 162.126L69.6811 162.125L69.6809 162.125L69.6807 162.125L69.6805 162.124L69.6803 162.124L69.68 162.124L69.6798 162.124L69.6796 162.123L69.6794 162.123L69.6792 162.123L69.679 162.122L69.6788 162.122L69.6786 162.122L69.6783 162.122L69.6781 162.121L69.6779 162.121L69.6777 162.121L69.6775 162.12L69.6773 162.12L69.6771 162.12L69.6768 162.12L69.6766 162.119L69.6764 162.119L69.6762 162.119L69.676 162.118L69.6758 162.118L69.6756 162.118L69.6753 162.118L69.6751 162.117L69.6749 162.117L69.6747 162.117L69.6745 162.116L69.6743 162.116L69.6741 162.116L69.6739 162.116L69.6736 162.115L69.6734 162.115L69.6732 162.115L69.673 162.115L69.6728 162.114L69.6726 162.114L69.6724 162.114L69.6722 162.113L69.6719 162.113L69.6717 162.113L69.6715 162.113L69.6713 162.112L69.6711 162.112L69.6709 162.112L69.6707 162.111L69.6704 162.111L69.6702 162.111L69.67 162.111L69.6698 162.11L69.6696 162.11L69.6694 162.11L69.6692 162.109L69.669 162.109L69.6687 162.109L69.6685 162.109L69.6683 162.108L69.6681 162.108L69.6679 162.108L69.6677 162.107L69.6675 162.107L69.6673 162.107L69.667 162.107L69.6668 162.106L69.6666 162.106L69.6664 162.106L69.6662 162.106L69.666 162.105L69.6658 162.105L69.6656 162.105L69.6653 162.104L69.6651 162.104L69.6649 162.104L69.6647 162.104L69.6645 162.103L69.6643 162.103L69.6641 162.103L69.6639 162.102L69.6636 162.102L69.6634 162.102L69.6632 162.102L69.663 162.101L69.6628 162.101L69.6626 162.101L69.6624 162.1L69.6622 162.1L69.6619 162.1L69.6617 162.1L69.6615 162.099L69.6613 162.099L69.6611 162.099L69.6609 162.099L69.6607 162.098L69.6605 162.098L69.6603 162.098L69.66 162.097L69.6598 162.097L69.6596 162.097L69.6594 162.097L69.6592 162.096L69.659 162.096L69.6588 162.096L69.6586 162.095L69.6584 162.095L69.6581 162.095L69.6579 162.095L69.6577 162.094L69.6575 162.094L69.6573 162.094L69.6571 162.093L69.6569 162.093L69.6567 162.093L69.6565 162.093L69.6562 162.092L69.656 162.092L69.6558 162.092L69.6556 162.092L69.6554 162.091L69.6552 162.091L69.655 162.091L69.6548 162.09L69.6546 162.09L69.6543 162.09L67.9375 160.192L67.9374 160.192L66.7971 158.932L66.7965 158.932L65.3772 157.358L60.5543 161.714L60.5535 161.714C57.4806 164.477 55.2447 168.045 54.0994 172.014L53.6187 171.875L54.099 172.015C53.0395 175.647 52.9272 179.489 53.7728 183.176C54.6184 186.863 56.3937 190.273 58.9302 193.082C58.9303 193.082 58.9304 193.083 58.9306 193.083L60.3727 194.672C60.3727 194.672 60.3728 194.672 60.3728 194.672C61.1462 195.524 62.2259 196.034 63.3756 196.092C64.5251 196.15 65.6507 195.75 66.5057 194.98L68.041 193.595ZM68.041 193.595L66.5061 194.98L68.041 193.595Z" fill="#E38466" stroke="#AA4545"/>
<path d="M72.2674 156.289L74.1236 155.127L74.1237 155.127C82.0983 150.14 87.763 142.194 89.872 133.035C91.981 123.877 90.3616 114.258 85.3699 106.292L85.3692 106.291L83.1321 102.7C83.1316 102.7 83.1311 102.699 83.1306 102.698C82.5742 101.828 81.6956 101.213 80.6867 100.988C79.6768 100.763 78.6186 100.946 77.7437 101.498L77.7422 101.499L75.4617 102.926L75.4616 102.926C68.4799 107.294 63.5208 114.253 61.6745 122.272C59.8282 130.291 61.2459 138.714 65.6157 145.689L72.2674 156.289ZM72.2674 156.289L69.2471 151.478L69.247 151.478L65.6158 145.689L72.2674 156.289Z" fill="#E38466" stroke="#AA4545"/>
<path d="M67.7653 159.659L66.1402 161.126L66.1401 161.126C59.1665 167.428 49.9733 170.707 40.5807 170.242C31.188 169.777 22.3646 165.606 16.0493 158.647L16.0486 158.646L13.1964 155.515C13.1962 155.515 13.196 155.515 13.1958 155.514C12.8506 155.133 12.5842 154.687 12.4119 154.202C12.2395 153.717 12.1647 153.203 12.1917 152.689C12.2187 152.176 12.3471 151.672 12.5694 151.208C12.7918 150.744 13.1037 150.328 13.4873 149.985L13.4873 149.985L13.4889 149.983L15.4853 148.18L15.4854 148.18C21.5954 142.661 29.6498 139.791 37.8779 140.201C46.1058 140.612 53.8337 144.269 59.3626 150.369C59.3627 150.369 59.3628 150.369 59.3628 150.369L63.9353 155.419L63.9477 155.436L63.9623 155.452L67.7653 159.659Z" fill="#E38466" stroke="#AA4545"/>
<path d="M70.366 152.378C73.1759 156.09 75.3406 159.716 76.5731 162.569C77.1909 164 77.5629 165.21 77.6759 166.126C77.7941 167.084 77.6102 167.534 77.3846 167.704C77.159 167.874 76.6761 167.929 75.7855 167.554C74.9336 167.196 73.8692 166.509 72.6595 165.525C70.2463 163.563 67.3431 160.495 64.5331 156.784C61.7232 153.072 59.5585 149.446 58.326 146.593C57.7082 145.162 57.3362 143.952 57.2232 143.036C57.105 142.078 57.2889 141.629 57.5145 141.458C57.7401 141.288 58.223 141.233 59.1137 141.608C59.9655 141.966 61.0299 142.653 62.2396 143.637C64.6528 145.599 67.556 148.667 70.366 152.378Z" fill="#E38466" stroke="#AA4545"/>
<path d="M59.2934 137.752C60.5112 139.361 60.193 141.651 58.5822 142.868C56.9714 144.084 54.6784 143.766 53.4606 142.158C52.2428 140.549 52.561 138.259 54.1718 137.042C55.7826 135.826 58.0756 136.144 59.2934 137.752Z" fill="#E38466" stroke="#AA4545"/>
<path d="M79.7059 117.999C81.537 116.616 81.8989 114.012 80.5143 112.183C79.1297 110.355 76.523 109.993 74.6919 111.376C72.8609 112.759 72.4989 115.362 73.8835 117.191C75.2681 119.02 77.8749 119.382 79.7059 117.999Z" fill="#8F3C0D"/>
<path d="M28.8697 156.393C30.7008 155.01 31.0627 152.407 29.6781 150.578C28.2936 148.749 25.6868 148.388 23.8557 149.77C22.0247 151.153 21.6628 153.757 23.0473 155.586C24.4319 157.415 27.0387 157.776 28.8697 156.393Z" fill="#8F3C0D"/>
</g>
<path d="M214.073 62.2678C217.334 62.2625 220.595 62.2571 223.856 62.2518C225.152 62.2497 226.681 61.9814 227.932 62.2452C230.529 62.7927 231.557 65.1116 228.642 66.2479C226.322 67.1524 222.022 66.3118 219.513 66.3092C218.001 66.3076 215.976 66.698 214.555 66.3039C214.004 66.3033 213.454 66.3028 212.903 66.3022C210.795 63.2348 211.335 61.814 214.522 62.0397C216.473 61.9892 216.481 58.9547 214.522 59.0055C210.472 59.1105 205.968 62.3307 208.221 66.8308C209.103 68.5914 210.595 69.1607 212.458 69.3239C216.934 69.7159 221.631 69.3654 226.124 69.3504C230.798 69.3349 235.524 67.5103 233.066 61.7438C232.097 59.4699 230.194 59.2601 227.932 59.2109C223.318 59.1107 218.688 59.226 214.073 59.2335C212.118 59.2367 212.115 62.271 214.073 62.2678Z" fill="#C2BB03"/>
<path d="M212.908 60.7286C212.952 54.5026 211.357 48.2849 207.824 43.0657C206.787 41.5342 205.148 40.4088 204.145 38.8666C201.748 35.1827 201.309 30.3721 202.682 26.2527C204.589 20.5301 209.212 17.4247 214.169 14.6427C221.68 10.4274 227.594 14.5962 233.072 19.9167C237.734 24.4438 239.778 29.3712 238.704 35.8945C237.853 41.0621 234.631 44.5405 232.33 49.0248C230.577 52.4405 230.577 56.2438 229.124 59.7709C228.381 61.5753 231.319 62.3614 232.054 60.5775C233.518 57.0221 233.443 53.243 235.379 49.8459C237.009 46.9864 238.868 44.3948 240.24 41.3583C242.134 37.1643 242.565 32.2868 241.693 27.7415C240.021 19.0211 227.968 8.86192 218.907 9.5411C210.055 10.2046 200.823 19.1014 199.219 27.681C198.478 31.6427 198.352 36.2114 200.699 39.5564C202.858 42.6328 205.143 44.714 206.887 48.2025C208.931 52.2886 209.902 56.1288 209.87 60.7286C209.856 62.6815 212.894 62.6835 212.908 60.7286Z" fill="#C2BB03"/>
<path d="M213.007 35.5005C216.417 39.3171 219.051 42.0014 219.088 47.5512C219.116 51.648 219.143 55.7447 219.17 59.8415C219.183 61.7932 222.221 61.7976 222.208 59.8415C222.171 54.2914 222.896 48.1019 222.068 42.6225C221.509 38.9268 217.54 36.0239 215.155 33.355C213.851 31.895 211.709 34.047 213.007 35.5005Z" fill="#C2BB03"/>
<path d="M226.576 32.5318C224.315 35.1937 222.01 37.7709 219.418 40.1199C217.967 41.4349 220.121 43.5756 221.566 42.2655C224.158 39.9165 226.463 37.3392 228.724 34.6773C229.982 33.1965 227.843 31.04 226.576 32.5318Z" fill="#C2BB03"/>
<path d="M191.232 32.9324C192.845 32.9324 194.457 32.9324 196.07 32.9324C198.025 32.9324 198.028 29.8945 196.07 29.8945C194.457 29.8945 192.845 29.8945 191.232 29.8945C189.277 29.8945 189.274 32.9324 191.232 32.9324Z" fill="#C2BB03"/>
<path d="M199.352 12.3835C200.384 13.0707 201.262 13.9578 201.942 14.9935C203.011 16.6195 205.642 15.101 204.566 13.4621C203.59 11.9763 202.365 10.7488 200.885 9.76356C200.202 9.30901 199.204 9.63019 198.807 10.3078C198.371 11.0516 198.667 11.9279 199.352 12.3835Z" fill="#C2BB03"/>
<path d="M218.909 2.07781C218.987 3.42715 219.003 4.77565 218.956 6.12641C218.888 8.07935 221.926 8.07671 221.994 6.12641C222.041 4.77563 222.025 3.42714 221.947 2.07781C221.835 0.136789 218.796 0.123848 218.909 2.07781Z" fill="#C2BB03"/>
<path d="M218.975 6.46438C218.918 7.2862 218.988 8.08065 219.114 8.8932C219.239 9.70367 220.257 10.1519 220.982 9.95281C221.849 9.71499 222.169 8.89947 222.043 8.08658C221.961 7.55232 221.975 7.00152 222.013 6.46438C222.07 5.64607 221.274 4.94727 220.494 4.94727C219.624 4.94727 219.033 5.64369 218.975 6.46438Z" fill="#C2BB03"/>
<path d="M242.914 9.31676C241.914 9.64447 241.181 10.322 240.433 11.0345C239.711 11.722 239.043 12.4786 238.556 13.3524C237.603 15.0599 240.226 16.5918 241.179 14.8839C241.508 14.293 241.926 13.8166 242.409 13.3453C242.774 12.9893 243.228 12.4045 243.722 12.2426C245.571 11.6365 244.779 8.70545 242.914 9.31676Z" fill="#C2BB03"/>
<path d="M245.127 32.7051C246.554 32.686 247.977 32.7332 249.4 32.8467C251.349 33.0023 251.339 29.9636 249.4 29.8088C247.977 29.6953 246.554 29.6481 245.127 29.6672C243.173 29.6934 243.168 32.7314 245.127 32.7051Z" fill="#C2BB03"/>
<path d="M482.847 160.5V178H506.347V189.1H482.847V207.6H509.347V219H468.847V149.1H509.347V160.5H482.847ZM543.27 219.9C538.737 219.9 534.67 219.1 531.07 217.5C527.47 215.833 524.603 213.6 522.47 210.8C520.403 208 519.27 204.9 519.07 201.5H533.17C533.437 203.633 534.47 205.4 536.27 206.8C538.137 208.2 540.437 208.9 543.17 208.9C545.837 208.9 547.903 208.367 549.37 207.3C550.903 206.233 551.67 204.867 551.67 203.2C551.67 201.4 550.737 200.067 548.87 199.2C547.07 198.267 544.17 197.267 540.17 196.2C536.037 195.2 532.637 194.167 529.97 193.1C527.37 192.033 525.103 190.4 523.17 188.2C521.303 186 520.37 183.033 520.37 179.3C520.37 176.233 521.237 173.433 522.97 170.9C524.77 168.367 527.303 166.367 530.57 164.9C533.903 163.433 537.803 162.7 542.27 162.7C548.87 162.7 554.137 164.367 558.07 167.7C562.003 170.967 564.17 175.4 564.57 181H551.17C550.97 178.8 550.037 177.067 548.37 175.8C546.77 174.467 544.603 173.8 541.87 173.8C539.337 173.8 537.37 174.267 535.97 175.2C534.637 176.133 533.97 177.433 533.97 179.1C533.97 180.967 534.903 182.4 536.77 183.4C538.637 184.333 541.537 185.3 545.47 186.3C549.47 187.3 552.77 188.333 555.37 189.4C557.97 190.467 560.203 192.133 562.07 194.4C564.003 196.6 565.003 199.533 565.07 203.2C565.07 206.4 564.17 209.267 562.37 211.8C560.637 214.333 558.103 216.333 554.77 217.8C551.503 219.2 547.67 219.9 543.27 219.9ZM590.562 171.6C592.362 169.067 594.829 166.967 597.962 165.3C601.162 163.567 604.796 162.7 608.862 162.7C613.596 162.7 617.862 163.867 621.662 166.2C625.529 168.533 628.562 171.867 630.762 176.2C633.029 180.467 634.162 185.433 634.162 191.1C634.162 196.767 633.029 201.8 630.762 206.2C628.562 210.533 625.529 213.9 621.662 216.3C617.862 218.7 613.596 219.9 608.862 219.9C604.796 219.9 601.196 219.067 598.062 217.4C594.996 215.733 592.496 213.633 590.562 211.1V245.4H576.562V163.6H590.562V171.6ZM619.862 191.1C619.862 187.767 619.162 184.9 617.762 182.5C616.429 180.033 614.629 178.167 612.362 176.9C610.162 175.633 607.762 175 605.162 175C602.629 175 600.229 175.667 597.962 177C595.762 178.267 593.962 180.133 592.562 182.6C591.229 185.067 590.562 187.967 590.562 191.3C590.562 194.633 591.229 197.533 592.562 200C593.962 202.467 595.762 204.367 597.962 205.7C600.229 206.967 602.629 207.6 605.162 207.6C607.762 207.6 610.162 206.933 612.362 205.6C614.629 204.267 616.429 202.367 617.762 199.9C619.162 197.433 619.862 194.5 619.862 191.1ZM640.736 191.1C640.736 185.5 641.836 180.533 644.036 176.2C646.302 171.867 649.336 168.533 653.136 166.2C657.002 163.867 661.302 162.7 666.036 162.7C670.169 162.7 673.769 163.533 676.836 165.2C679.969 166.867 682.469 168.967 684.336 171.5V163.6H698.436V219H684.336V210.9C682.536 213.5 680.036 215.667 676.836 217.4C673.702 219.067 670.069 219.9 665.936 219.9C661.269 219.9 657.002 218.7 653.136 216.3C649.336 213.9 646.302 210.533 644.036 206.2C641.836 201.8 640.736 196.767 640.736 191.1ZM684.336 191.3C684.336 187.9 683.669 185 682.336 182.6C681.002 180.133 679.202 178.267 676.936 177C674.669 175.667 672.236 175 669.636 175C667.036 175 664.636 175.633 662.436 176.9C660.236 178.167 658.436 180.033 657.036 182.5C655.702 184.9 655.036 187.767 655.036 191.1C655.036 194.433 655.702 197.367 657.036 199.9C658.436 202.367 660.236 204.267 662.436 205.6C664.702 206.933 667.102 207.6 669.636 207.6C672.236 207.6 674.669 206.967 676.936 205.7C679.202 204.367 681.002 202.5 682.336 200.1C683.669 197.633 684.336 194.7 684.336 191.3ZM735.809 207.9C741.476 207.9 745.176 205.367 746.909 200.3H762.009C760.609 205.7 758.009 210.1 754.209 213.5C750.476 216.9 745.776 218.933 740.109 219.6V223.5C743.776 223.5 746.842 224.433 749.309 226.3C751.842 228.167 753.109 230.867 753.109 234.4C753.109 238 751.809 240.767 749.209 242.7C746.676 244.633 743.542 245.6 739.809 245.6H725.609V237.4H737.509C739.109 237.4 740.309 237.167 741.109 236.7C741.976 236.233 742.409 235.4 742.409 234.2C742.409 233 741.976 232.167 741.109 231.7C740.309 231.3 739.109 231.1 737.509 231.1H731.309V219.6C726.776 218.933 722.776 217.367 719.309 214.9C715.909 212.367 713.242 209.1 711.309 205.1C709.442 201.033 708.509 196.433 708.509 191.3C708.509 185.567 709.676 180.567 712.009 176.3C714.342 171.967 717.576 168.633 721.709 166.3C725.842 163.9 730.576 162.7 735.909 162.7C742.776 162.7 748.442 164.433 752.909 167.9C757.442 171.3 760.476 176.1 762.009 182.3H746.909C746.109 179.9 744.742 178.033 742.809 176.7C740.942 175.3 738.609 174.6 735.809 174.6C731.809 174.6 728.642 176.067 726.309 179C723.976 181.867 722.809 185.967 722.809 191.3C722.809 196.567 723.976 200.667 726.309 203.6C728.642 206.467 731.809 207.9 735.809 207.9ZM796.865 219.9C791.532 219.9 786.732 218.733 782.465 216.4C778.199 214 774.832 210.633 772.365 206.3C769.965 201.967 768.765 196.967 768.765 191.3C768.765 185.633 769.999 180.633 772.465 176.3C774.999 171.967 778.432 168.633 782.765 166.3C787.099 163.9 791.932 162.7 797.265 162.7C802.599 162.7 807.432 163.9 811.765 166.3C816.099 168.633 819.499 171.967 821.965 176.3C824.499 180.633 825.765 185.633 825.765 191.3C825.765 196.967 824.465 201.967 821.865 206.3C819.332 210.633 815.865 214 811.465 216.4C807.132 218.733 802.265 219.9 796.865 219.9ZM796.865 207.7C799.399 207.7 801.765 207.1 803.965 205.9C806.232 204.633 808.032 202.767 809.365 200.3C810.699 197.833 811.365 194.833 811.365 191.3C811.365 186.033 809.965 182 807.165 179.2C804.432 176.333 801.065 174.9 797.065 174.9C793.065 174.9 789.699 176.333 786.965 179.2C784.299 182 782.965 186.033 782.965 191.3C782.965 196.567 784.265 200.633 786.865 203.5C789.532 206.3 792.865 207.7 796.865 207.7ZM873.863 160.5V178H897.363V189.1H873.863V207.6H900.363V219H859.863V149.1H900.363V160.5H873.863ZM909.486 191.1C909.486 185.5 910.586 180.533 912.786 176.2C915.052 171.867 918.119 168.533 921.986 166.2C925.852 163.867 930.152 162.7 934.886 162.7C938.486 162.7 941.919 163.5 945.186 165.1C948.452 166.633 951.052 168.7 952.986 171.3V145H967.186V219H952.986V210.8C951.252 213.533 948.819 215.733 945.686 217.4C942.552 219.067 938.919 219.9 934.786 219.9C930.119 219.9 925.852 218.7 921.986 216.3C918.119 213.9 915.052 210.533 912.786 206.2C910.586 201.8 909.486 196.767 909.486 191.1ZM953.086 191.3C953.086 187.9 952.419 185 951.086 182.6C949.752 180.133 947.952 178.267 945.686 177C943.419 175.667 940.986 175 938.386 175C935.786 175 933.386 175.633 931.186 176.9C928.986 178.167 927.186 180.033 925.786 182.5C924.452 184.9 923.786 187.767 923.786 191.1C923.786 194.433 924.452 197.367 925.786 199.9C927.186 202.367 928.986 204.267 931.186 205.6C933.452 206.933 935.852 207.6 938.386 207.6C940.986 207.6 943.419 206.967 945.686 205.7C947.952 204.367 949.752 202.5 951.086 200.1C952.419 197.633 953.086 194.7 953.086 191.3ZM1033.16 163.6V219H1019.06V212C1017.26 214.4 1014.89 216.3 1011.96 217.7C1009.09 219.033 1005.96 219.7 1002.56 219.7C998.226 219.7 994.392 218.8 991.059 217C987.726 215.133 985.092 212.433 983.159 208.9C981.292 205.3 980.359 201.033 980.359 196.1V163.6H994.359V194.1C994.359 198.5 995.459 201.9 997.659 204.3C999.859 206.633 1002.86 207.8 1006.66 207.8C1010.53 207.8 1013.56 206.633 1015.76 204.3C1017.96 201.9 1019.06 198.5 1019.06 194.1V163.6H1033.16ZM1043.37 191.3C1043.37 185.567 1044.54 180.567 1046.87 176.3C1049.21 171.967 1052.44 168.633 1056.57 166.3C1060.71 163.9 1065.44 162.7 1070.77 162.7C1077.64 162.7 1083.31 164.433 1087.77 167.9C1092.31 171.3 1095.34 176.1 1096.87 182.3H1081.77C1080.97 179.9 1079.61 178.033 1077.67 176.7C1075.81 175.3 1073.47 174.6 1070.67 174.6C1066.67 174.6 1063.51 176.067 1061.17 179C1058.84 181.867 1057.67 185.967 1057.67 191.3C1057.67 196.567 1058.84 200.667 1061.17 203.6C1063.51 206.467 1066.67 207.9 1070.67 207.9C1076.34 207.9 1080.04 205.367 1081.77 200.3H1096.87C1095.34 206.3 1092.31 211.067 1087.77 214.6C1083.24 218.133 1077.57 219.9 1070.77 219.9C1065.44 219.9 1060.71 218.733 1056.57 216.4C1052.44 214 1049.21 210.667 1046.87 206.4C1044.54 202.067 1043.37 197.033 1043.37 191.3ZM1103.53 191.1C1103.53 185.5 1104.63 180.533 1106.83 176.2C1109.1 171.867 1112.13 168.533 1115.93 166.2C1119.8 163.867 1124.1 162.7 1128.83 162.7C1132.96 162.7 1136.56 163.533 1139.63 165.2C1142.76 166.867 1145.26 168.967 1147.13 171.5V163.6H1161.23V219H1147.13V210.9C1145.33 213.5 1142.83 215.667 1139.63 217.4C1136.5 219.067 1132.86 219.9 1128.73 219.9C1124.06 219.9 1119.8 218.7 1115.93 216.3C1112.13 213.9 1109.1 210.533 1106.83 206.2C1104.63 201.8 1103.53 196.767 1103.53 191.1ZM1147.13 191.3C1147.13 187.9 1146.46 185 1145.13 182.6C1143.8 180.133 1142 178.267 1139.73 177C1137.46 175.667 1135.03 175 1132.43 175C1129.83 175 1127.43 175.633 1125.23 176.9C1123.03 178.167 1121.23 180.033 1119.83 182.5C1118.5 184.9 1117.83 187.767 1117.83 191.1C1117.83 194.433 1118.5 197.367 1119.83 199.9C1121.23 202.367 1123.03 204.267 1125.23 205.6C1127.5 206.933 1129.9 207.6 1132.43 207.6C1135.03 207.6 1137.46 206.967 1139.73 205.7C1142 204.367 1143.8 202.5 1145.13 200.1C1146.46 197.633 1147.13 194.7 1147.13 191.3ZM1191.2 175.1V201.9C1191.2 203.767 1191.64 205.133 1192.5 206C1193.44 206.8 1194.97 207.2 1197.1 207.2H1203.6V219H1194.8C1183 219 1177.1 213.267 1177.1 201.8V175.1H1170.5V163.6H1177.1V149.9H1191.2V163.6H1203.6V175.1H1191.2ZM1220.77 157C1218.3 157 1216.24 156.233 1214.57 154.7C1212.97 153.1 1212.17 151.133 1212.17 148.8C1212.17 146.467 1212.97 144.533 1214.57 143C1216.24 141.4 1218.3 140.6 1220.77 140.6C1223.24 140.6 1225.27 141.4 1226.87 143C1228.54 144.533 1229.37 146.467 1229.37 148.8C1229.37 151.133 1228.54 153.1 1226.87 154.7C1225.27 156.233 1223.24 157 1220.77 157ZM1227.67 163.6V219H1213.67V163.6H1227.67ZM1264.6 206.1L1278.6 163.6H1293.5L1273 219H1256L1235.6 163.6H1250.6L1264.6 206.1ZM1352.87 190.1C1352.87 192.1 1352.73 193.9 1352.47 195.5H1311.97C1312.3 199.5 1313.7 202.633 1316.17 204.9C1318.63 207.167 1321.67 208.3 1325.27 208.3C1330.47 208.3 1334.17 206.067 1336.37 201.6H1351.47C1349.87 206.933 1346.8 211.333 1342.27 214.8C1337.73 218.2 1332.17 219.9 1325.57 219.9C1320.23 219.9 1315.43 218.733 1311.17 216.4C1306.97 214 1303.67 210.633 1301.27 206.3C1298.93 201.967 1297.77 196.967 1297.77 191.3C1297.77 185.567 1298.93 180.533 1301.27 176.2C1303.6 171.867 1306.87 168.533 1311.07 166.2C1315.27 163.867 1320.1 162.7 1325.57 162.7C1330.83 162.7 1335.53 163.833 1339.67 166.1C1343.87 168.367 1347.1 171.6 1349.37 175.8C1351.7 179.933 1352.87 184.7 1352.87 190.1ZM1338.37 186.1C1338.3 182.5 1337 179.633 1334.47 177.5C1331.93 175.3 1328.83 174.2 1325.17 174.2C1321.7 174.2 1318.77 175.267 1316.37 177.4C1314.03 179.467 1312.6 182.367 1312.07 186.1H1338.37Z" fill="black"/>
<defs>
<clipPath id="clip0_702_401">
<rect width="77.1724" height="77.133" fill="white" transform="matrix(0.843268 0.537493 -0.538419 0.842677 356.653 98.2705)"/>
</clipPath>
<clipPath id="clip1_702_401">
<rect width="86.3582" height="86.3607" fill="white" transform="matrix(-0.699161 0.714964 -0.71581 -0.698295 421.947 308.451)"/>
</clipPath>
<clipPath id="clip2_702_401">
<rect width="94.1736" height="94.1426" fill="white" transform="matrix(0.797985 -0.602677 0.603607 0.797282 0 143.498)"/>
</clipPath>
</defs>
</svg>
