<svg width="517" height="453" viewBox="0 0 517 453" fill="none" xmlns="http://www.w3.org/2000/svg">
<path d="M395.054 243.353C395.046 237.908 393.955 232.52 391.844 227.501C389.733 222.481 386.645 217.931 382.759 214.113C381.867 213.233 381.243 212.118 380.962 210.898C380.681 209.677 380.753 208.402 381.17 207.221C382.407 203.541 382.886 199.648 382.58 195.778C382.274 191.908 381.188 188.139 379.387 184.698C377.587 181.258 375.109 178.216 372.102 175.755C369.095 173.295 365.622 171.466 361.89 170.38C361.156 163.267 357.808 156.679 352.494 151.888C347.18 147.097 340.276 144.444 333.117 144.44C332.825 144.44 332.574 143.605 332.281 143.605C329.036 138.983 324.757 135.181 319.785 132.498C314.812 129.815 309.282 128.326 303.633 128.149H298.029C297.02 128.146 296.013 128.23 295.018 128.4C290.282 129.135 285.962 131.532 282.835 135.16C279.708 138.789 277.978 143.412 277.955 148.199V333.661C277.95 338.595 279.756 343.361 283.031 347.056C286.307 350.75 290.824 353.118 295.729 353.71C296.495 353.753 297.263 353.753 298.029 353.71H306.017C310.369 353.563 314.642 352.511 318.563 350.619L319.693 350.118H320.362C326.67 351.595 333.3 350.758 339.043 347.76C344.785 344.762 349.257 339.803 351.644 333.786H353.317C358.49 334.249 363.687 333.225 368.296 330.835C372.905 328.444 376.734 324.787 379.33 320.294C381.189 316.934 382.301 313.214 382.589 309.386C382.878 305.558 382.337 301.714 381.002 298.114C383.474 296.627 385.603 294.636 387.251 292.271C388.899 289.906 390.028 287.22 390.565 284.389C391.102 281.558 391.034 278.646 390.367 275.843C389.699 273.04 388.446 270.409 386.69 268.123C392.103 260.995 395.039 252.298 395.054 243.353Z" fill="#7BAC7A"/>
<path d="M382.508 243.352C382.5 237.908 381.408 232.52 379.298 227.501C377.187 222.481 374.099 217.931 370.213 214.113C369.32 213.233 368.697 212.118 368.416 210.898C368.134 209.677 368.206 208.402 368.623 207.221C369.86 203.54 370.34 199.648 370.034 195.778C369.728 191.908 368.642 188.139 366.841 184.698C365.04 181.257 362.562 178.216 359.556 175.755C356.549 173.294 353.076 171.466 349.344 170.379C348.609 163.267 345.262 156.679 339.947 151.888C334.633 147.097 327.73 144.443 320.571 144.44C320.278 144.44 320.027 143.604 319.735 143.604C316.842 139.556 313.163 136.131 308.916 133.533C304.67 130.935 299.943 129.218 295.018 128.483C290.296 129.216 285.987 131.601 282.862 135.212C279.737 138.823 277.998 143.426 277.955 148.199V333.66C277.975 338.392 279.662 342.966 282.721 346.578C285.78 350.191 290.015 352.613 294.684 353.418H295.729C299.724 352.983 303.614 351.867 307.23 350.118C309.535 350.73 311.913 351.025 314.298 350.995C315.7 350.988 317.099 350.863 318.48 350.619C319.067 350.451 319.67 350.339 320.278 350.285C326.345 351.057 332.494 349.75 337.721 346.579C342.947 343.407 346.942 338.558 349.051 332.825C363.521 332.825 364.86 329.567 369.962 320.294C374.144 312.608 370.882 304.713 368.456 298.114C370.928 296.627 373.057 294.636 374.705 292.271C376.353 289.906 377.482 287.22 378.019 284.389C378.556 281.558 378.488 278.646 377.82 275.842C377.153 273.039 375.9 270.409 374.144 268.122C379.556 260.995 382.493 252.298 382.508 243.352Z" fill="#589A57"/>
<path d="M286.319 270.169V349.533C281.259 348.656 285.148 349.784 282.137 345.857V270.169H286.319Z" fill="#5A9F59"/>
<path d="M315.594 199.159L312.29 202.877L301.459 208.307L286.319 211.69H277.955V199.159H315.594Z" fill="#5A9F59"/>
<path d="M245.125 128.149C244.499 128.087 243.869 128.087 243.243 128.149H237.639C231.998 128.316 226.472 129.792 221.5 132.46C216.528 135.128 212.246 138.915 208.992 143.521C208.699 143.521 208.448 143.938 208.155 143.938C201.011 144.016 194.142 146.701 188.842 151.486C183.543 156.272 180.178 162.828 179.382 169.92C175.295 171.134 171.525 173.231 168.34 176.063C165.155 178.895 162.633 182.392 160.953 186.307C159.272 190.221 158.475 194.457 158.617 198.714C158.759 202.971 159.838 207.144 161.776 210.938C153.323 217.623 147.83 227.351 146.478 238.034C145.125 248.717 148.02 259.505 154.541 268.08C152.801 270.367 151.562 272.994 150.906 275.79C150.249 278.586 150.189 281.489 150.73 284.31C151.27 287.131 152.399 289.806 154.042 292.163C155.686 294.52 157.808 296.504 160.27 297.988C159.181 300.96 158.615 304.097 158.597 307.261C158.608 314.37 161.441 321.184 166.473 326.211C171.506 331.238 178.329 334.067 185.446 334.078C186.847 334.081 188.246 333.969 189.628 333.744C191.65 338.721 195.124 342.976 199.599 345.956C204.074 348.936 209.343 350.502 214.721 350.452C216.874 350.573 219.033 350.461 221.162 350.118H221.789L222.458 350.41C226.563 352.437 231.055 353.562 235.632 353.71H244.498C248.91 353.225 253.008 351.199 256.069 347.989C259.13 344.779 260.957 340.591 261.226 336.166V146.445C261.004 142.027 259.292 137.815 256.369 134.493C253.445 131.172 249.483 128.936 245.125 128.149Z" fill="#7BAC7A"/>
<path d="M245.126 128.149C239.999 128.768 235.061 130.457 230.63 133.105C226.199 135.753 222.375 139.302 219.406 143.521C219.113 143.521 218.862 143.939 218.569 143.939C211.432 144.027 204.573 146.716 199.282 151.501C193.991 156.285 190.633 162.836 189.838 169.92C185.751 171.134 181.981 173.231 178.796 176.063C175.611 178.895 173.089 182.393 171.408 186.307C169.728 190.222 168.931 194.458 169.073 198.715C169.215 202.971 170.293 207.145 172.231 210.939C163.785 217.629 158.301 227.36 156.956 238.043C155.611 248.726 158.513 259.51 165.038 268.081C163.298 270.367 162.06 272.994 161.403 275.79C160.747 278.587 160.687 281.489 161.227 284.31C161.768 287.131 162.896 289.807 164.54 292.163C166.184 294.52 168.305 296.505 170.768 297.988C169.722 300.968 169.198 304.105 169.22 307.261C169.22 322.048 175.326 332.825 190.131 332.825C191.511 332.825 192.975 337.211 194.313 337.002C197.784 345.649 211.041 348.865 220.786 350.243C221.217 350.287 221.651 350.287 222.082 350.243C222.987 350.307 223.895 350.307 224.8 350.243C227.179 350.527 229.585 350.485 231.952 350.118C235.867 352.103 240.125 353.322 244.498 353.71C248.91 353.226 253.009 351.2 256.07 347.989C259.131 344.779 260.957 340.592 261.227 336.167V146.445C261.005 142.028 259.293 137.816 256.369 134.494C253.446 131.172 249.483 128.936 245.126 128.149Z" fill="#146112"/>
<path d="M245.126 128.149C239.996 128.773 235.055 130.468 230.624 133.124C226.193 135.779 222.371 139.336 219.406 143.563C219.113 143.563 218.862 143.98 218.569 143.98C211.439 144.067 204.585 146.751 199.295 151.527C194.005 156.303 190.642 162.843 189.838 169.92C185.751 171.134 181.981 173.231 178.796 176.063C175.611 178.895 173.089 182.393 171.408 186.307C169.728 190.222 168.931 194.458 169.073 198.715C169.215 202.971 170.293 207.145 172.231 210.939C163.773 217.63 158.281 227.369 156.935 238.062C155.59 248.756 158.5 259.549 165.038 268.122C163.298 270.409 162.06 273.036 161.403 275.832C160.747 278.628 160.687 281.531 161.227 284.352C161.768 287.173 162.896 289.849 164.54 292.205C166.184 294.562 168.305 296.546 170.768 298.03C169.722 301.009 169.198 304.146 169.22 307.303C169.22 322.09 175.326 332.825 190.131 332.825C191.511 332.825 192.975 337.211 194.313 337.002C197.784 345.649 211.041 348.865 220.786 350.243C221.217 350.287 221.651 350.287 222.082 350.243C222.987 350.307 223.895 350.307 224.8 350.243C227.177 350.541 229.583 350.513 231.952 350.16C235.87 352.13 240.128 353.335 244.498 353.71C248.91 353.226 253.009 351.2 256.07 347.989C259.131 344.779 260.957 340.592 261.227 336.167V146.487C261.014 142.062 259.306 137.84 256.382 134.51C253.458 131.18 249.49 128.938 245.126 128.149V128.149Z" fill="#589A57"/>
<path d="M252.862 270.169V349.533C257.045 348.656 254.033 349.784 257.045 345.857V270.169H252.862Z" fill="#5A9F59"/>
<path d="M223.588 199.159L226.892 202.877L237.723 208.307L252.862 211.69H261.227V199.159H223.588Z" fill="#5A9F59"/>
<path d="M243.244 128.149H237.64C231.999 128.32 226.475 129.797 221.503 132.465C216.532 135.133 212.249 138.917 208.992 143.521C208.699 143.521 208.448 143.939 208.156 143.939C201.012 144.017 194.143 146.701 188.843 151.487C183.543 156.272 180.178 162.828 179.383 169.92C175.297 171.129 171.527 173.222 168.342 176.05C165.157 178.877 162.635 182.371 160.954 186.283C159.273 190.194 158.476 194.427 158.618 198.681C158.76 202.935 159.838 207.106 161.776 210.897C153.311 217.582 147.811 227.318 146.458 238.012C145.105 248.705 148.007 259.502 154.541 268.081C152.795 270.365 151.551 272.992 150.891 275.789C150.231 278.586 150.169 281.491 150.71 284.314C151.25 287.137 152.381 289.814 154.029 292.17C155.676 294.527 157.803 296.509 160.27 297.988C158.616 302.364 158.144 307.098 158.901 311.714C159.659 316.33 161.62 320.666 164.587 324.285C167.553 327.905 171.422 330.68 175.803 332.333C180.184 333.986 184.924 334.458 189.545 333.702C191.572 338.677 195.047 342.929 199.521 345.908C203.995 348.887 209.261 350.455 214.638 350.41C217.002 350.584 219.379 350.444 221.706 349.993C226.007 352.173 230.729 353.398 235.549 353.585H243.244C247.869 353.4 252.262 351.516 255.581 348.293C258.9 345.071 260.911 340.737 261.227 336.125V146.445C260.965 141.734 258.996 137.279 255.687 133.913C252.378 130.546 247.954 128.497 243.244 128.149Z" stroke="#146112" stroke-linecap="round" stroke-linejoin="round"/>
<path d="M146.219 243.353C146.542 233.725 150.598 224.6 157.532 217.904C164.465 211.207 173.732 207.464 183.377 207.464C193.021 207.464 202.288 211.207 209.222 217.904C216.155 224.6 220.211 233.725 220.535 243.353" stroke="#146112" stroke-linecap="round" stroke-linejoin="round"/>
<path d="M162.738 247.445C162.735 243.37 163.665 239.347 165.455 235.684C167.245 232.021 169.849 228.815 173.068 226.31" stroke="#146112" stroke-linecap="round" stroke-linejoin="round"/>
<path d="M181.306 161.566C183.759 155.601 188.207 150.67 193.892 147.615C199.577 144.559 206.147 143.568 212.482 144.81C218.817 146.052 224.525 149.45 228.632 154.425C232.739 159.4 234.992 165.644 235.005 172.092" stroke="#146112" stroke-linecap="round" stroke-linejoin="round"/>
<path d="M171.897 282.7C174.905 281.419 178.266 281.227 181.401 282.155C184.536 283.084 187.249 285.075 189.071 287.787C190.894 290.498 191.714 293.76 191.388 297.009C191.062 300.259 189.612 303.293 187.287 305.59" stroke="#146112" stroke-linecap="round" stroke-linejoin="round"/>
<path d="M195.526 182.454C197.602 180.433 200.386 179.303 203.283 179.303C206.181 179.303 208.964 180.433 211.041 182.454" stroke="#146112" stroke-linecap="round" stroke-linejoin="round"/>
<path d="M199.666 318.626C201.75 316.555 204.569 315.393 207.507 315.393C210.446 315.393 213.265 316.555 215.349 318.626" stroke="#146112" stroke-linecap="round" stroke-linejoin="round"/>
<path d="M259.763 270.169H213.76C206.24 270.169 199.027 267.185 193.71 261.874C188.392 256.563 185.405 249.36 185.405 241.849V233.035" stroke="#146112" stroke-linecap="round" stroke-linejoin="round"/>
<path d="M259.763 208.306H239.312C235.985 208.306 232.794 206.986 230.441 204.636C228.088 202.286 226.766 199.099 226.766 195.775V191.849" stroke="#146112" stroke-linecap="round" stroke-linejoin="round"/>
<path d="M259.763 294.896H239.312C235.985 294.896 232.794 296.217 230.441 298.567C228.088 300.917 226.766 304.104 226.766 307.428V311.354" stroke="#146112" stroke-linecap="round" stroke-linejoin="round"/>
<path d="M234.921 344.436C233.152 344.666 231.354 344.516 229.647 343.997C227.941 343.477 226.365 342.6 225.024 341.424C223.684 340.248 222.61 338.8 221.875 337.176C221.139 335.553 220.758 333.792 220.758 332.01C220.758 330.228 221.139 328.466 221.875 326.843C222.61 325.219 223.684 323.771 225.024 322.595C226.365 321.419 227.941 320.542 229.647 320.023C231.354 319.503 233.152 319.353 234.921 319.583C236.03 319.583 237.094 320.023 237.878 320.806C238.663 321.59 239.103 322.652 239.103 323.76C239.103 324.868 238.663 325.93 237.878 326.714C237.094 327.497 236.03 327.937 234.921 327.937C234.309 327.798 233.673 327.798 233.06 327.938C232.448 328.077 231.875 328.353 231.384 328.744C230.893 329.136 230.496 329.632 230.224 330.198C229.951 330.763 229.81 331.382 229.81 332.01C229.81 332.637 229.951 333.256 230.224 333.822C230.496 334.387 230.893 334.884 231.384 335.275C231.875 335.666 232.448 335.942 233.06 336.082C233.673 336.222 234.309 336.222 234.921 336.082C236.03 336.082 237.094 336.522 237.878 337.306C238.663 338.089 239.103 339.152 239.103 340.259C239.103 341.367 238.663 342.43 237.878 343.213C237.094 343.996 236.03 344.436 234.921 344.436Z" fill="#7BAC7A"/>
<path d="M239.103 340.26C237.909 340.451 236.687 340.38 235.522 340.053C234.357 339.726 233.277 339.15 232.357 338.366C231.436 337.582 230.697 336.607 230.19 335.51C229.683 334.413 229.421 333.219 229.421 332.01C229.421 330.802 229.683 329.608 230.19 328.511C230.697 327.413 231.436 326.439 232.357 325.655C233.277 324.87 234.357 324.295 235.522 323.968C236.687 323.641 237.909 323.57 239.103 323.761" stroke="#146112" stroke-linecap="round" stroke-linejoin="round"/>
<path d="M244.498 245.106H261.227" stroke="#146112" stroke-linecap="round" stroke-linejoin="round"/>
<path d="M277.955 148.199V333.66C277.966 338.975 280.085 344.068 283.847 347.826C287.609 351.583 292.709 353.699 298.029 353.71H306.017C310.808 353.512 315.501 352.286 319.776 350.118C322.083 350.724 324.46 351.019 326.844 350.995C332.254 350.991 337.539 349.364 342.012 346.325C346.486 343.287 349.944 338.976 351.937 333.953H353.61C358.753 334.348 363.902 333.273 368.456 330.855C373.01 328.436 376.782 324.773 379.33 320.294C381.196 316.945 382.312 313.23 382.601 309.408C382.89 305.586 382.344 301.747 381.003 298.155C383.485 296.674 385.625 294.684 387.281 292.315C388.937 289.947 390.071 287.255 390.609 284.417C391.146 281.578 391.075 278.658 390.4 275.85C389.724 273.041 388.46 270.407 386.69 268.122C392.613 260.299 395.539 250.618 394.941 240.829C394.343 231.039 390.259 221.786 383.428 214.74C382.35 213.618 381.594 212.227 381.241 210.713C380.888 209.198 380.95 207.617 381.421 206.135C383.423 199.385 382.882 192.136 379.9 185.757C376.919 179.378 371.703 174.309 365.236 171.507C364.202 171.091 363.284 170.435 362.556 169.592C361.828 168.749 361.313 167.744 361.054 166.662C359.58 160.309 355.995 154.642 350.884 150.584C345.773 146.526 339.437 144.316 332.908 144.315C332.615 144.315 332.365 143.437 332.072 143.479C328.832 138.911 324.58 135.151 319.648 132.492C314.715 129.833 309.235 128.347 303.633 128.149H298.029C292.709 128.16 287.609 130.276 283.847 134.034C280.085 137.792 277.966 142.885 277.955 148.199Z" stroke="#146112" stroke-linecap="round" stroke-linejoin="round"/>
<path d="M395.054 243.353C394.731 233.725 390.674 224.6 383.741 217.904C376.808 211.207 367.541 207.464 357.896 207.464C348.252 207.464 338.985 211.207 332.051 217.904C325.118 224.6 321.062 233.725 320.738 243.353" stroke="#146112" stroke-linecap="round" stroke-linejoin="round"/>
<path d="M378.535 247.445C378.538 243.37 377.608 239.347 375.818 235.684C374.028 232.021 371.424 228.815 368.205 226.31" stroke="#146112" stroke-linecap="round" stroke-linejoin="round"/>
<path d="M359.966 161.566C357.514 155.601 353.066 150.67 347.381 147.615C341.696 144.559 335.126 143.568 328.791 144.81C322.455 146.052 316.748 149.45 312.641 154.425C308.534 159.4 306.281 165.644 306.268 172.092" stroke="#146112" stroke-linecap="round" stroke-linejoin="round"/>
<path d="M369.376 282.7C366.368 281.419 363.007 281.227 359.872 282.155C356.737 283.084 354.024 285.075 352.201 287.787C350.378 290.498 349.559 293.76 349.885 297.009C350.211 300.259 351.661 303.293 353.986 305.59" stroke="#146112" stroke-linecap="round" stroke-linejoin="round"/>
<path d="M345.747 182.454C343.663 180.383 340.844 179.221 337.906 179.221C334.967 179.221 332.149 180.383 330.064 182.454" stroke="#146112" stroke-linecap="round" stroke-linejoin="round"/>
<path d="M341.607 318.626C339.523 316.555 336.704 315.393 333.766 315.393C330.827 315.393 328.008 316.555 325.924 318.626" stroke="#146112" stroke-linecap="round" stroke-linejoin="round"/>
<path d="M281.51 270.169H327.513C335.033 270.169 342.246 267.185 347.563 261.874C352.881 256.563 355.868 249.36 355.868 241.849V233.035" stroke="#146112" stroke-linecap="round" stroke-linejoin="round"/>
<path d="M314.549 191.808V195.734C314.549 199.058 313.227 202.245 310.874 204.595C308.521 206.945 305.33 208.265 302.002 208.265H281.51" stroke="#146112" stroke-linecap="round" stroke-linejoin="round"/>
<path d="M281.51 294.896H301.961C305.288 294.896 308.479 296.217 310.832 298.567C313.185 300.917 314.507 304.104 314.507 307.428V311.354" stroke="#146112" stroke-linecap="round" stroke-linejoin="round"/>
<path d="M306.352 344.436C305.243 344.436 304.179 343.996 303.395 343.213C302.61 342.43 302.17 341.367 302.17 340.259C302.17 339.152 302.61 338.089 303.395 337.306C304.179 336.522 305.243 336.082 306.352 336.082C306.964 336.222 307.6 336.222 308.213 336.082C308.825 335.942 309.398 335.666 309.889 335.275C310.38 334.884 310.777 334.387 311.049 333.822C311.322 333.256 311.463 332.637 311.463 332.01C311.463 331.382 311.322 330.763 311.049 330.198C310.777 329.632 310.38 329.136 309.889 328.744C309.398 328.353 308.825 328.077 308.213 327.938C307.6 327.798 306.964 327.798 306.352 327.937C305.243 327.937 304.179 327.497 303.395 326.714C302.61 325.93 302.17 324.868 302.17 323.76C302.17 322.652 302.61 321.59 303.395 320.806C304.179 320.023 305.243 319.583 306.352 319.583C308.121 319.353 309.919 319.503 311.625 320.023C313.332 320.542 314.908 321.419 316.249 322.595C317.589 323.771 318.663 325.219 319.398 326.843C320.134 328.466 320.514 330.228 320.514 332.01C320.514 333.792 320.134 335.553 319.398 337.176C318.663 338.8 317.589 340.248 316.249 341.424C314.908 342.6 313.332 343.477 311.625 343.997C309.919 344.516 308.121 344.666 306.352 344.436V344.436Z" fill="#7BAC7A"/>
<path d="M302.17 340.26C304.135 339.947 305.923 338.944 307.215 337.432C308.506 335.92 309.215 333.998 309.215 332.01C309.215 330.023 308.506 328.101 307.215 326.589C305.923 325.077 304.135 324.074 302.17 323.761" stroke="#146112" stroke-linecap="round" stroke-linejoin="round"/>
<path d="M294.684 245.106H277.955" stroke="#146112" stroke-linecap="round" stroke-linejoin="round"/>
<g clip-path="url(#clip0_702_404)">
<path d="M487.343 165.739C496.763 171.743 499.523 184.221 493.524 193.61C482.659 210.616 459.426 209.433 431.535 215.588C425.374 187.729 414.535 167.194 425.4 150.188C431.399 140.799 443.893 138.044 453.292 144.035C461.805 149.461 463.345 156.426 462.17 167.642C471.857 161.852 478.831 160.313 487.343 165.739Z" fill="#C82626"/>
</g>
<g clip-path="url(#clip1_702_404)">
<path d="M460.724 417.777L455.996 413.165L476.776 391.915L481.503 396.528C482.757 397.751 483.473 399.421 483.494 401.172C483.515 402.922 482.838 404.609 481.614 405.862L470.069 417.667C468.845 418.919 467.172 419.635 465.419 419.655C463.667 419.676 461.978 419 460.724 417.777Z" fill="#2BA429"/>
<path d="M458.195 401.469L465.121 394.386L424.935 355.182L418.008 362.266L458.195 401.469Z" fill="#2A8F27"/>
<path d="M451.268 408.552L458.195 401.469L418.008 362.266L411.081 369.349L451.268 408.552Z" fill="#2A8F27"/>
<path d="M465.121 394.386L472.048 387.303L431.861 348.099L424.935 355.183L465.121 394.386Z" fill="#2A8F27"/>
<path d="M455.996 413.165L476.776 391.915L472.048 387.303L451.268 408.552L455.996 413.165Z" fill="#FFE94F"/>
<path d="M431.861 348.1L407.288 344.888L411.081 369.349L431.861 348.1Z" fill="#FFE94F"/>
<path d="M410.018 363.352L425.602 347.415L431.861 348.1L411.081 369.349L410.018 363.352Z" fill="#DEB142"/>
<path d="M408.868 355.081L417.527 346.227L407.288 344.888L408.868 355.081Z" fill="#2BA429"/>
<path d="M471.251 418.819L482.796 407.014C484.326 405.449 485.172 403.34 485.146 401.152C485.12 398.964 484.225 396.875 482.658 395.346L433.016 346.919C432.879 346.782 432.715 346.676 432.533 346.609C432.533 346.609 432.533 346.609 432.462 346.54C432.366 346.493 432.263 346.463 432.157 346.45L417.823 344.577L407.584 343.239C407.33 343.205 407.071 343.232 406.829 343.316C406.586 343.4 406.367 343.539 406.188 343.722C406.008 343.905 405.874 344.128 405.796 344.372C405.718 344.616 405.697 344.874 405.737 345.128L407.317 355.32L409.53 369.589C409.545 369.694 409.578 369.797 409.627 369.891C409.627 369.891 409.627 369.891 409.698 369.96C409.729 370.165 409.807 370.36 409.927 370.529L459.569 418.957C461.137 420.486 463.248 421.33 465.439 421.305C467.63 421.279 469.72 420.385 471.251 418.819ZM424.962 357.516L462.785 394.413L458.167 399.135L420.344 362.238L424.962 357.516ZM431.889 350.433L469.711 387.33L465.094 392.052L427.271 355.155L431.889 350.433ZM453.604 408.525L472.075 389.636L474.439 391.942L455.968 410.831L453.604 408.525ZM455.858 401.496L451.241 406.218L413.418 369.321L418.036 364.599L455.858 401.496ZM480.349 397.707C481.29 398.625 481.827 399.878 481.842 401.191C481.858 402.503 481.35 403.769 480.432 404.708L468.887 416.513C467.969 417.453 466.714 417.989 465.4 418.004C464.085 418.02 462.819 417.513 461.878 416.596L458.332 413.137L476.803 394.248L480.349 397.707ZM414.036 347.434L409.995 351.566L409.262 346.813L414.036 347.434ZM410.628 355.642L418.131 347.969L428.37 349.307L412.208 365.835L410.628 355.642Z" fill="#001C63"/>
<path d="M474.247 401.583C473.609 402.235 473.621 403.281 474.275 403.918C474.928 404.555 475.974 404.543 476.612 403.89C477.25 403.238 477.238 402.192 476.585 401.555C475.932 400.918 474.885 400.93 474.247 401.583Z" fill="#001C63"/>
</g>
<path d="M135.292 338.043L69.9039 403.353L81.2011 414.636L146.59 349.327L135.292 338.043Z" fill="#69BFE3"/>
<path d="M135.28 338.034L130.618 342.689L136.267 348.331L141.915 353.973L146.577 349.317L135.28 338.034Z" fill="#2890BD"/>
<path d="M61.3874 327.412V423.123H157.215L61.3874 327.412ZM77.3641 365.928L118.669 407.182H77.3641V365.928Z" fill="white"/>
<path d="M150.606 423.123L61.3874 334.013V327.412L157.215 423.123H150.606Z" fill="#68B2D1"/>
<path d="M104.84 391.027L93.5556 379.756L78.5537 364.773C78.3217 364.545 78.0279 364.392 77.709 364.33C77.39 364.269 77.0601 364.303 76.7604 364.428C76.4607 364.553 76.2045 364.764 76.0239 365.033C75.8433 365.303 75.7463 365.62 75.7449 365.944V407.199C75.7449 407.637 75.919 408.056 76.2289 408.366C76.5387 408.675 76.9589 408.849 77.3971 408.849H118.702C119.027 408.848 119.344 408.751 119.614 408.571C119.884 408.39 120.095 408.134 120.22 407.835C120.345 407.536 120.379 407.206 120.318 406.888C120.256 406.569 120.102 406.276 119.875 406.044L104.84 391.044V391.027ZM89.9703 380.911L78.9502 391.902V369.905L89.9703 380.911ZM78.9502 396.572L92.2999 383.238L101.255 392.199L87.9051 405.516H79.0163L78.9502 396.572ZM92.5808 405.516L103.601 394.526L114.605 405.516H92.5808Z" fill="#267394"/>
<path d="M158.388 421.952L117.281 380.912L147.748 350.516C147.902 350.362 148.025 350.18 148.109 349.979C148.193 349.777 148.236 349.562 148.236 349.344C148.236 349.126 148.193 348.91 148.109 348.709C148.025 348.508 147.902 348.326 147.748 348.172L136.447 336.868C136.293 336.714 136.11 336.591 135.909 336.507C135.708 336.423 135.492 336.38 135.273 336.38C135.055 336.38 134.839 336.423 134.638 336.507C134.437 336.591 134.254 336.714 134.1 336.868L103.65 367.298L62.5604 326.241C62.3281 326.012 62.033 325.857 61.7125 325.795C61.392 325.734 61.0604 325.768 60.7595 325.895C60.4578 326.018 60.1995 326.229 60.0172 326.499C59.8349 326.769 59.7368 327.087 59.7352 327.413V423.124C59.7352 423.562 59.9092 423.981 60.2191 424.291C60.5289 424.6 60.9492 424.774 61.3874 424.774H157.215C157.541 424.773 157.859 424.675 158.13 424.493C158.4 424.31 158.611 424.053 158.735 423.751C158.861 423.451 158.896 423.119 158.834 422.799C158.772 422.479 158.617 422.184 158.388 421.952ZM135.257 340.367L144.228 349.327L139.156 354.393L136.81 352.05C136.662 351.877 136.48 351.737 136.275 351.638C136.07 351.539 135.846 351.483 135.619 351.475C135.391 351.466 135.164 351.504 134.952 351.587C134.74 351.67 134.548 351.796 134.387 351.957C134.226 352.118 134.1 352.31 134.017 352.522C133.934 352.733 133.895 352.96 133.904 353.187C133.913 353.415 133.969 353.638 134.068 353.842C134.167 354.047 134.307 354.229 134.48 354.377L136.81 356.72L129.821 363.717L127.475 361.39C127.322 361.236 127.139 361.113 126.937 361.029C126.736 360.945 126.52 360.902 126.302 360.902C126.084 360.902 125.868 360.945 125.667 361.029C125.465 361.113 125.283 361.236 125.129 361.39C124.821 361.7 124.649 362.118 124.649 362.554C124.649 362.99 124.821 363.408 125.129 363.717L127.475 366.06L120.47 373.057L118.124 370.714C117.97 370.56 117.787 370.438 117.585 370.355C117.384 370.271 117.169 370.229 116.951 370.229C116.733 370.229 116.517 370.271 116.316 370.355C116.115 370.438 115.932 370.56 115.778 370.714C115.624 370.868 115.501 371.05 115.418 371.251C115.335 371.452 115.292 371.668 115.292 371.886C115.292 372.103 115.335 372.319 115.418 372.52C115.501 372.721 115.624 372.903 115.778 373.057L118.124 375.384L114.951 378.569L105.997 369.625L135.257 340.367ZM132.432 421.474V418.173C132.432 417.736 132.258 417.316 131.948 417.007C131.638 416.697 131.218 416.523 130.78 416.523C130.341 416.523 129.921 416.697 129.611 417.007C129.301 417.316 129.127 417.736 129.127 418.173V421.474H119.214V418.173C119.214 417.736 119.04 417.316 118.73 417.007C118.42 416.697 118 416.523 117.562 416.523C117.124 416.523 116.704 416.697 116.394 417.007C116.084 417.316 115.91 417.736 115.91 418.173V421.474H105.997V418.173C105.997 417.736 105.823 417.316 105.513 417.007C105.203 416.697 104.783 416.523 104.344 416.523C103.906 416.523 103.486 416.697 103.176 417.007C102.866 417.316 102.692 417.736 102.692 418.173V421.474H92.779V418.173C92.779 417.736 92.605 417.316 92.2951 417.007C91.9853 416.697 91.565 416.523 91.1269 416.523C90.6887 416.523 90.2684 416.697 89.9586 417.007C89.6487 417.316 89.4747 417.736 89.4747 418.173V421.474H79.5615V418.173C79.5615 417.736 79.3874 417.316 79.0776 417.007C78.7677 416.697 78.3475 416.523 77.9093 416.523C77.4711 416.523 77.0509 416.697 76.741 417.007C76.4312 417.316 76.2571 417.736 76.2571 418.173V421.474H63.0396V406.622H66.3439C66.7821 406.622 67.2024 406.448 67.5122 406.139C67.8221 405.829 67.9961 405.41 67.9961 404.972C67.9961 404.534 67.8221 404.115 67.5122 403.805C67.2024 403.496 66.7821 403.322 66.3439 403.322H63.0396V393.421H66.3439C66.7821 393.421 67.2024 393.247 67.5122 392.937C67.8221 392.628 67.9961 392.208 67.9961 391.77C67.9961 391.333 67.8221 390.913 67.5122 390.604C67.2024 390.294 66.7821 390.12 66.3439 390.12H63.0396V380.219H66.3439C66.7821 380.219 67.2024 380.045 67.5122 379.736C67.8221 379.426 67.9961 379.006 67.9961 378.569C67.9961 378.131 67.8221 377.711 67.5122 377.402C67.2024 377.093 66.7821 376.919 66.3439 376.919H63.0396V367.017H66.3439C66.7821 367.017 67.2024 366.844 67.5122 366.534C67.8221 366.225 67.9961 365.805 67.9961 365.367C67.9961 364.93 67.8221 364.51 67.5122 364.2C67.2024 363.891 66.7821 363.717 66.3439 363.717H63.0396V353.816H66.3439C66.7821 353.816 67.2024 353.642 67.5122 353.333C67.8221 353.023 67.9961 352.603 67.9961 352.166C67.9961 351.728 67.8221 351.308 67.5122 350.999C67.2024 350.689 66.7821 350.516 66.3439 350.516H63.0396V331.39L153.233 421.474H132.432Z" fill="#267394"/>
<g clip-path="url(#clip2_702_404)">
<path d="M87.7776 189.913L86.3364 187.624L93.1848 183.332L93.1854 183.331C97.4847 180.628 102.457 179.182 107.537 179.158L107.539 179.158C112.193 179.121 116.78 180.274 120.862 182.508C124.944 184.741 128.386 187.981 130.861 191.918C130.861 191.918 130.861 191.918 130.861 191.918L132.254 194.145C132.254 194.145 132.254 194.145 132.254 194.145C133.016 195.363 133.263 196.834 132.941 198.234C132.619 199.634 131.755 200.849 130.537 201.614L128.393 202.957L128.392 202.958C122.269 206.819 114.864 208.099 107.798 206.518C100.732 204.936 94.5816 200.623 90.6935 194.522L90.6827 194.505L90.6705 194.489L90.6702 194.488L90.67 194.488L90.6697 194.488L90.6695 194.487L90.6692 194.487L90.669 194.487L90.6687 194.486L90.6685 194.486L90.6682 194.486L90.668 194.485L90.6677 194.485L90.6674 194.485L90.6672 194.484L90.6669 194.484L90.6667 194.484L90.6664 194.483L90.6662 194.483L90.6659 194.483L90.6657 194.482L90.6654 194.482L90.6651 194.482L90.6649 194.481L90.6646 194.481L90.6644 194.481L90.6641 194.48L90.6639 194.48L90.6636 194.48L90.6634 194.479L90.6631 194.479L90.6628 194.479L90.6626 194.478L90.6623 194.478L90.6621 194.478L90.6618 194.477L90.6616 194.477L90.6613 194.477L90.661 194.476L90.6608 194.476L90.6605 194.476L90.6603 194.475L90.66 194.475L90.6598 194.475L90.6595 194.474L90.6592 194.474L90.659 194.474L90.6587 194.473L90.6585 194.473L90.6582 194.473L90.658 194.472L90.6577 194.472L90.6574 194.472L90.6572 194.471L90.6569 194.471L90.6567 194.471L90.6564 194.47L90.6562 194.47L90.6559 194.47L90.6556 194.469L90.6554 194.469L90.6551 194.468L90.6549 194.468L90.6546 194.468L90.6544 194.467L90.6541 194.467L90.6538 194.467L90.6536 194.466L90.6533 194.466L90.6531 194.466L90.6528 194.465L90.6525 194.465L90.6523 194.465L90.652 194.464L90.6518 194.464L90.6515 194.464L90.6513 194.463L90.651 194.463L90.6507 194.463L90.6505 194.462L90.6502 194.462L90.65 194.462L90.6497 194.461L90.6494 194.461L90.6492 194.461L90.6489 194.46L90.6487 194.46L90.6484 194.46L90.6482 194.459L90.6479 194.459L90.6476 194.459L90.6474 194.458L90.6471 194.458L90.6469 194.458L90.6466 194.457L90.6463 194.457L90.6461 194.457L90.6458 194.456L90.6456 194.456L90.6453 194.456L90.645 194.455L90.6448 194.455L90.6445 194.454L90.6443 194.454L90.644 194.454L90.6437 194.453L90.6435 194.453L90.6432 194.453L90.643 194.452L90.6427 194.452L90.6424 194.452L90.6422 194.451L90.6419 194.451L90.6417 194.451L90.6414 194.45L90.6412 194.45L90.6409 194.45L90.6406 194.449L90.6404 194.449L90.6401 194.449L90.6399 194.448L90.6396 194.448L90.6393 194.448L90.6391 194.447L90.6388 194.447L90.6386 194.447L90.6383 194.446L90.638 194.446L90.6378 194.446L90.6375 194.445L90.6372 194.445L90.637 194.445L90.6367 194.444L90.6365 194.444L90.6362 194.444L90.6359 194.443L90.6357 194.443L90.6354 194.442L90.6352 194.442L90.6349 194.442L90.6346 194.441L90.6344 194.441L90.6341 194.441L90.6339 194.44L90.6336 194.44L90.6333 194.44L90.6331 194.439L90.6328 194.439L90.6326 194.439L90.6323 194.438L90.632 194.438L90.6318 194.438L90.6315 194.437L90.6313 194.437L90.631 194.437L90.6307 194.436L90.6305 194.436L90.6302 194.436L90.63 194.435L90.6297 194.435L90.6294 194.435L90.6292 194.434L90.6289 194.434L90.6286 194.434L90.6284 194.433L90.6281 194.433L90.6279 194.432L90.6276 194.432L90.6273 194.432L90.6271 194.431L90.6268 194.431L90.6266 194.431L90.6263 194.43L90.626 194.43L90.6258 194.43L90.6255 194.429L90.6252 194.429L90.625 194.429L90.6247 194.428L90.6245 194.428L90.6242 194.428L90.6239 194.427L90.6237 194.427L90.6234 194.427L90.6232 194.426L90.6229 194.426L90.6226 194.426L90.6224 194.425L90.6221 194.425L90.6218 194.425L90.6216 194.424L90.6213 194.424L90.6211 194.424L90.6208 194.423L90.6205 194.423L90.6203 194.422L90.62 194.422L90.6198 194.422L90.6195 194.421L90.6192 194.421L90.619 194.421L90.6187 194.42L90.6184 194.42L90.6182 194.42L90.6179 194.419L90.6177 194.419L90.6174 194.419L90.6171 194.418L90.6169 194.418L90.6166 194.418L90.6164 194.417L90.6161 194.417L90.6158 194.417L90.6156 194.416L90.6153 194.416L90.615 194.416L90.6148 194.415L90.6145 194.415L90.6143 194.415L90.614 194.414L90.6137 194.414L90.6135 194.413L90.6132 194.413L90.6129 194.413L90.6127 194.412L90.6124 194.412L90.6122 194.412L90.6119 194.411L90.6116 194.411L90.6114 194.411L90.6111 194.41L90.6109 194.41L90.6106 194.41L90.6103 194.409L90.6101 194.409L90.6098 194.409L90.6095 194.408L90.6093 194.408L90.609 194.408L90.6088 194.407L90.6085 194.407L90.6082 194.407L90.608 194.406L90.6077 194.406L90.6074 194.406L90.6072 194.405L90.6069 194.405L90.6067 194.404L90.6064 194.404L90.6061 194.404L90.6059 194.403L90.6056 194.403L90.6053 194.403L90.6051 194.402L90.6048 194.402L90.6046 194.402L90.6043 194.401L90.604 194.401L90.6038 194.401L90.6035 194.4L90.6033 194.4L90.603 194.4L90.6027 194.399L90.6025 194.399L90.6022 194.399L90.6019 194.398L90.6017 194.398L90.6014 194.398L90.6012 194.397L90.6009 194.397L90.6006 194.397L90.6004 194.396L90.6001 194.396L90.5998 194.395L90.5996 194.395L90.5993 194.395L90.5991 194.394L90.5988 194.394L90.5985 194.394L90.5983 194.393L90.598 194.393L90.5977 194.393L90.5975 194.392L90.5972 194.392L90.597 194.392L90.5967 194.391L90.5964 194.391L90.5962 194.391L90.5959 194.39L90.5957 194.39L90.5954 194.39L90.5951 194.389L90.5949 194.389L90.5946 194.389L90.5943 194.388L90.5941 194.388L90.5938 194.388L90.5936 194.387L90.5933 194.387L90.593 194.386L90.5928 194.386L90.5925 194.386L90.5922 194.385L90.592 194.385L90.5917 194.385L90.5915 194.384L90.5912 194.384L90.5909 194.384L90.5907 194.383L90.5904 194.383L90.5902 194.383L90.5899 194.382L90.5896 194.382L90.5894 194.382L90.5891 194.381L90.5888 194.381L90.5886 194.381L90.5883 194.38L90.5881 194.38L90.5878 194.38L90.5875 194.379L90.5873 194.379L90.587 194.379L90.5867 194.378L90.5865 194.378L90.5862 194.377L90.586 194.377L90.5857 194.377L90.5854 194.376L90.5852 194.376L90.5849 194.376L90.5847 194.375L90.5844 194.375L90.5841 194.375L90.5839 194.374L90.5836 194.374L90.5833 194.374L90.5831 194.373L90.5828 194.373L90.5826 194.373L90.5823 194.372L90.582 194.372L90.5818 194.372L90.5815 194.371L90.5813 194.371L90.581 194.371L90.5807 194.37L90.5805 194.37L90.5802 194.37L90.58 194.369L90.5797 194.369L90.5794 194.369L90.5792 194.368L90.5789 194.368L90.5786 194.367L90.5784 194.367L90.5781 194.367L90.5779 194.366L90.5776 194.366L90.5773 194.366L90.5771 194.365L90.5768 194.365L90.5766 194.365L90.5763 194.364L90.576 194.364L90.5758 194.364L90.5755 194.363L90.5753 194.363L90.575 194.363L90.5747 194.362L90.5745 194.362L90.5742 194.362L90.574 194.361L90.5737 194.361L90.5734 194.361L90.5732 194.36L90.5729 194.36L90.5726 194.36L90.5724 194.359L90.5721 194.359L90.5719 194.359L90.5716 194.358L90.5713 194.358L90.5711 194.357L90.5708 194.357L90.5706 194.357L90.5703 194.356L90.57 194.356L90.5698 194.356L90.5695 194.355L90.5693 194.355L90.569 194.355L90.5687 194.354L90.5685 194.354L90.5682 194.354L90.568 194.353L90.5677 194.353L90.5674 194.353L90.5672 194.352L90.5669 194.352L90.5667 194.352L90.5664 194.351L90.5661 194.351L90.5659 194.351L90.5656 194.35L90.5654 194.35L90.5651 194.35L90.5648 194.349L90.5646 194.349L90.5643 194.349L90.5641 194.348L90.5638 194.348L90.5635 194.348L90.5633 194.347L90.563 194.347L90.5628 194.347L90.5625 194.346L90.5623 194.346L90.562 194.345L90.5617 194.345L90.5615 194.345L90.5612 194.344L90.561 194.344L90.5607 194.344L90.5604 194.343L90.5602 194.343L90.5599 194.343L90.5597 194.342L90.5594 194.342L90.5591 194.342L90.5589 194.341L90.5586 194.341L90.5584 194.341L90.5581 194.34L90.5579 194.34L90.5576 194.34L90.5573 194.339L90.5571 194.339L90.5568 194.339L90.5566 194.338L90.5563 194.338L90.556 194.338L90.5558 194.337L90.5555 194.337L90.5553 194.337L90.555 194.336L90.5548 194.336L90.5545 194.336L90.5542 194.335L90.554 194.335L90.5537 194.335L90.5535 194.334L90.5532 194.334L90.5529 194.334L90.5527 194.333L90.5524 194.333L90.5522 194.333L90.5519 194.332L90.5517 194.332L90.5514 194.331L90.5511 194.331L90.5509 194.331L90.5508 194.331L88.8828 191.674L88.8827 191.674L87.778 189.913L87.7776 189.913Z" fill="#E38466" stroke="#AA4545"/>
<path d="M83.3358 236.981L83.3355 236.981L81.4572 238.676C80.3889 239.638 78.9824 240.138 77.546 240.065C76.1096 239.993 74.7605 239.355 73.7943 238.292C73.7942 238.291 73.7941 238.291 73.7941 238.291L72.0292 236.346C72.0291 236.346 72.0289 236.346 72.0288 236.346C68.9122 232.894 66.7308 228.704 65.6918 224.174C64.6527 219.643 64.7907 214.922 66.0926 210.46L65.6123 210.32L66.093 210.458C67.5002 205.582 70.2476 201.198 74.0234 197.803L74.0242 197.802L80.009 192.398L81.8208 194.406L81.8214 194.407L83.2168 195.948L83.2169 195.948L85.3209 198.274L85.3212 198.275L85.3214 198.275L85.3217 198.275L85.322 198.276L85.3222 198.276L85.3225 198.276L85.3227 198.277L85.323 198.277L85.3233 198.277L85.3235 198.278L85.3238 198.278L85.324 198.278L85.3243 198.279L85.3245 198.279L85.3248 198.279L85.3251 198.28L85.3253 198.28L85.3256 198.28L85.3258 198.281L85.3261 198.281L85.3263 198.281L85.3266 198.282L85.3269 198.282L85.3271 198.282L85.3274 198.283L85.3276 198.283L85.3279 198.283L85.3282 198.284L85.3284 198.284L85.3287 198.284L85.3289 198.285L85.3292 198.285L85.3294 198.286L85.3297 198.286L85.33 198.286L85.3302 198.287L85.3305 198.287L85.3307 198.287L85.331 198.288L85.3313 198.288L85.3315 198.288L85.3318 198.289L85.332 198.289L85.3323 198.289L85.3326 198.29L85.3328 198.29L85.3331 198.29L85.3333 198.291L85.3336 198.291L85.3339 198.291L85.3341 198.292L85.3344 198.292L85.3346 198.292L85.3349 198.293L85.3351 198.293L85.3354 198.293L85.3357 198.294L85.3359 198.294L85.3362 198.294L85.3364 198.295L85.3367 198.295L85.337 198.295L85.3372 198.296L85.3375 198.296L85.3377 198.296L85.338 198.297L85.3383 198.297L85.3385 198.298L85.3388 198.298L85.339 198.298L85.3393 198.299L85.3396 198.299L85.3398 198.299L85.3401 198.3L85.3403 198.3L85.3406 198.3L85.3409 198.301L85.3411 198.301L85.3414 198.301L85.3416 198.302L85.3419 198.302L85.3422 198.302L85.3424 198.303L85.3427 198.303L85.3429 198.303L85.3432 198.304L85.3435 198.304L85.3437 198.304L85.344 198.305L85.3443 198.305L85.3445 198.305L85.3448 198.306L85.345 198.306L85.3453 198.306L85.3456 198.307L85.3458 198.307L85.3461 198.307L85.3463 198.308L85.3466 198.308L85.3469 198.309L85.3471 198.309L85.3474 198.309L85.3476 198.31L85.3479 198.31L85.3482 198.31L85.3484 198.311L85.3487 198.311L85.3489 198.311L85.3492 198.312L85.3495 198.312L85.3497 198.312L85.35 198.313L85.3503 198.313L85.3505 198.313L85.3508 198.314L85.351 198.314L85.3513 198.314L85.3516 198.315L85.3518 198.315L85.3521 198.315L85.3523 198.316L85.3526 198.316L85.3529 198.316L85.3531 198.317L85.3534 198.317L85.3536 198.317L85.3539 198.318L85.3542 198.318L85.3544 198.319L85.3547 198.319L85.355 198.319L85.3552 198.32L85.3555 198.32L85.3557 198.32L85.356 198.321L85.3563 198.321L85.3565 198.321L85.3568 198.322L85.357 198.322L85.3573 198.322L85.3576 198.323L85.3578 198.323L85.3581 198.323L85.3584 198.324L85.3586 198.324L85.3589 198.324L85.3591 198.325L85.3594 198.325L85.3597 198.325L85.3599 198.326L85.3602 198.326L85.3605 198.326L85.3607 198.327L85.361 198.327L85.3612 198.328L85.3615 198.328L85.3618 198.328L85.362 198.329L85.3623 198.329L85.3625 198.329L85.3628 198.33L85.3631 198.33L85.3633 198.33L85.3636 198.331L85.3639 198.331L85.3641 198.331L85.3644 198.332L85.3646 198.332L85.3649 198.332L85.3652 198.333L85.3654 198.333L85.3657 198.333L85.366 198.334L85.3662 198.334L85.3665 198.334L85.3667 198.335L85.367 198.335L85.3673 198.335L85.3675 198.336L85.3678 198.336L85.368 198.337L85.3683 198.337L85.3686 198.337L85.3688 198.338L85.3691 198.338L85.3694 198.338L85.3696 198.339L85.3699 198.339L85.3701 198.339L85.3704 198.34L85.3707 198.34L85.3709 198.34L85.3712 198.341L85.3715 198.341L85.3717 198.341L85.372 198.342L85.3722 198.342L85.3725 198.342L85.3728 198.343L85.373 198.343L85.3733 198.343L85.3736 198.344L85.3738 198.344L85.3741 198.344L85.3743 198.345L85.3746 198.345L85.3749 198.346L85.3751 198.346L85.3754 198.346L85.3756 198.347L85.3759 198.347L85.3762 198.347L85.3764 198.348L85.3767 198.348L85.377 198.348L85.3772 198.349L85.3775 198.349L85.3777 198.349L85.378 198.35L85.3783 198.35L85.3785 198.35L85.3788 198.351L85.3791 198.351L85.3793 198.351L85.3796 198.352L85.3798 198.352L85.3801 198.352L85.3804 198.353L85.3806 198.353L85.3809 198.353L85.3812 198.354L85.3814 198.354L85.3817 198.355L85.3819 198.355L85.3822 198.355L85.3825 198.356L85.3827 198.356L85.383 198.356L85.3832 198.357L85.3835 198.357L85.3838 198.357L85.384 198.358L85.3843 198.358L85.3846 198.358L85.3848 198.359L85.3851 198.359L85.3853 198.359L85.3856 198.36L85.3859 198.36L85.3861 198.36L85.3864 198.361L85.3867 198.361L85.3869 198.361L85.3872 198.362L85.3874 198.362L85.3877 198.362L85.388 198.363L85.3882 198.363L85.3885 198.364L85.3888 198.364L85.389 198.364L85.3893 198.365L85.3895 198.365L85.3898 198.365L85.3901 198.366L85.3903 198.366L85.3906 198.366L85.3908 198.367L85.3911 198.367L85.3914 198.367L85.3916 198.368L85.3919 198.368L85.3922 198.368L85.3924 198.369L85.3927 198.369L85.3929 198.369L85.3932 198.37L85.3935 198.37L85.3937 198.37L85.394 198.371L85.3942 198.371L85.3945 198.371L85.3948 198.372L85.395 198.372L85.3953 198.372L85.3956 198.373L85.3958 198.373L85.3961 198.374L85.3963 198.374L85.3966 198.374L85.3969 198.375L85.3971 198.375L85.3974 198.375L85.3976 198.376L85.3979 198.376L85.3982 198.376L85.3984 198.377L85.3987 198.377L85.3989 198.377L85.3992 198.378L85.3995 198.378L85.3997 198.378L85.4 198.379L85.4003 198.379L85.4005 198.379L85.4008 198.38L85.401 198.38L85.4013 198.38L85.4016 198.381L85.4018 198.381L85.4021 198.381L85.4023 198.382L85.4026 198.382L85.4029 198.382L85.4031 198.383L85.4034 198.383L85.4036 198.384L85.4039 198.384L85.4042 198.384L85.4044 198.385L85.4047 198.385L85.4049 198.385L85.4052 198.386L85.4055 198.386L85.4057 198.386L85.406 198.387L85.4063 198.387L85.4065 198.387L85.4068 198.388L85.407 198.388L85.4073 198.388L85.4076 198.389L85.4078 198.389L85.4081 198.389L85.4083 198.39L85.4086 198.39L85.4089 198.39L85.4091 198.391L85.4094 198.391L85.4096 198.391L85.4099 198.392L85.4102 198.392L85.4104 198.392L85.4107 198.393L85.4109 198.393L85.4112 198.393L85.4115 198.394L85.4117 198.394L85.412 198.395L85.4122 198.395L85.4125 198.395L85.4128 198.396L85.413 198.396L85.4133 198.396L85.4135 198.397L85.4138 198.397L85.4141 198.397L85.4143 198.398L85.4146 198.398L85.4148 198.398L85.4151 198.399L85.4154 198.399L85.4156 198.399L85.4159 198.4L85.4161 198.4L85.4164 198.4L85.4166 198.401L85.4169 198.401L85.4172 198.401L85.4174 198.402L85.4177 198.402L85.4179 198.402L85.4182 198.403L85.4185 198.403L85.4187 198.403L85.419 198.404L85.4192 198.404L85.4195 198.404L85.4198 198.405L85.42 198.405L85.4203 198.405L85.4205 198.406L85.4208 198.406L85.421 198.407L85.4213 198.407L85.4216 198.407L85.4218 198.408L85.4221 198.408L85.4223 198.408L85.4226 198.409L85.4229 198.409L85.4231 198.409L85.4234 198.41L85.4236 198.41L85.4239 198.41L85.4241 198.411L85.4244 198.411L85.4247 198.411L85.4249 198.412L85.4252 198.412L85.4254 198.412L85.4257 198.413L85.426 198.413L85.4262 198.413L85.4265 198.414L85.4267 198.414L85.427 198.414L85.4272 198.415L85.4275 198.415L85.4278 198.415L85.428 198.416L85.4283 198.416L85.4285 198.416L85.4288 198.417L85.429 198.417L85.4293 198.417L85.4296 198.418L85.4298 198.418L85.4301 198.418L85.4303 198.419L85.4306 198.419L85.4308 198.419L85.4311 198.42L85.4314 198.42L85.4316 198.42L85.4319 198.421L85.4321 198.421L85.4324 198.421L85.4326 198.422L85.4329 198.422L85.4331 198.422L85.4334 198.423L85.4337 198.423L85.4339 198.424L85.4342 198.424L85.4344 198.424L85.4347 198.425L85.4349 198.425L85.4352 198.425L85.4355 198.426L85.4357 198.426L85.436 198.426L85.4362 198.427L85.4365 198.427L85.4367 198.427L85.437 198.428L85.4372 198.428L85.4375 198.428L85.4378 198.429L85.438 198.429L85.4383 198.429L85.4385 198.43L85.4388 198.43L85.439 198.43L85.4393 198.431L85.4395 198.431L85.4398 198.431L85.4401 198.432L85.4403 198.432L85.4406 198.432L85.4408 198.433L85.4411 198.433L85.4537 198.45L85.4678 198.465C86.6351 199.765 87.6749 201.173 88.5731 202.67C91.7979 208.114 93.0383 214.505 92.0839 220.758C91.1295 227.012 88.0388 232.744 83.3358 236.981Z" fill="#E38466" stroke="#AA4545"/>
<path d="M90.7631 189.921L88.3969 191.402L84.6416 185.42L84.6415 185.42L80.198 178.337C74.8349 169.776 73.095 159.438 75.3609 149.597C77.6268 139.755 83.7131 131.215 92.2816 125.854L92.2817 125.854L95.0723 124.108L95.0738 124.107C96.1694 123.415 97.4945 123.186 98.7591 123.468C100.023 123.75 101.123 124.521 101.82 125.611C101.821 125.611 101.821 125.612 101.822 125.613L104.56 130.008L104.56 130.009C110.684 139.781 112.671 151.583 110.084 162.818C107.496 174.054 100.547 183.803 90.7632 189.921L90.7631 189.921Z" fill="#E38466" stroke="#AA4545"/>
<path d="M83.0811 195.379L81.0096 197.25L81.0094 197.25C72.4541 204.981 61.1755 209.003 49.6523 208.433C38.1291 207.862 27.3041 202.746 19.5563 194.207L19.5556 194.207L16.0651 190.375C16.0649 190.375 16.0648 190.375 16.0646 190.374C15.6322 189.897 15.2986 189.338 15.0828 188.731C14.8668 188.124 14.7731 187.48 14.807 186.837C14.8408 186.193 15.0015 185.563 15.28 184.981C15.5584 184.4 15.949 183.88 16.4295 183.449L16.4295 183.449L16.431 183.448L18.874 181.242L18.874 181.242C26.3727 174.468 36.2578 170.946 46.3559 171.449C56.454 171.953 65.9383 176.441 72.7239 183.928C72.724 183.928 72.7241 183.928 72.7241 183.928L78.3227 190.112L78.3247 190.114L78.3379 190.132L78.3525 190.148L83.0811 195.379Z" fill="#E38466" stroke="#AA4545"/>
<path d="M86.1947 186.394C89.637 190.941 92.2912 195.386 93.8038 198.888C94.5617 200.643 95.0215 202.135 95.1616 203.271C95.307 204.449 95.0896 205.056 94.7616 205.304C94.4336 205.552 93.7891 205.595 92.6938 205.135C91.6374 204.69 90.3254 203.842 88.8414 202.636C85.8797 200.228 82.321 196.466 78.8787 191.919C75.4365 187.373 72.7823 182.928 71.2697 179.426C70.5117 177.671 70.052 176.179 69.9118 175.043C69.7665 173.865 69.9839 173.257 70.3119 173.009C70.6399 172.762 71.2844 172.718 72.3796 173.179C73.4361 173.623 74.7481 174.471 76.232 175.678C79.1938 178.086 82.7525 181.847 86.1947 186.394Z" fill="#E38466" stroke="#AA4545"/>
<path d="M72.6455 168.498C74.173 170.515 73.7738 173.388 71.7534 174.914C69.7331 176.44 66.857 176.041 65.3295 174.023C63.802 172.006 64.2011 169.133 66.2215 167.607C68.2419 166.081 71.118 166.48 72.6455 168.498Z" fill="#E38466" stroke="#AA4545"/>
<path d="M97.5347 144.393C99.7753 142.7 100.218 139.514 98.5239 137.277C96.8296 135.039 93.6398 134.596 91.3992 136.288C89.1585 137.981 88.7156 141.167 90.4099 143.405C92.1042 145.643 95.2941 146.085 97.5347 144.393Z" fill="#8F3C0D"/>
<path d="M35.3274 191.375C37.568 189.683 38.0109 186.497 36.3166 184.259C34.6223 182.021 31.4325 181.579 29.1919 183.271C26.9513 184.963 26.5084 188.149 28.2026 190.387C29.8969 192.625 33.0868 193.067 35.3274 191.375Z" fill="#8F3C0D"/>
</g>
<g clip-path="url(#clip3_702_404)">
<path d="M261.957 76.1949C265.948 76.1884 269.938 76.1819 273.928 76.1754C275.515 76.1728 277.386 75.8445 278.916 76.1672C282.094 76.8372 283.352 79.6748 279.785 81.0653C276.946 82.1721 271.684 81.1435 268.614 81.1403C266.763 81.1383 264.286 81.6161 262.547 81.1338C261.873 81.1331 261.199 81.1324 260.525 81.1317C257.946 77.3783 258.607 75.6396 262.506 75.9159C264.894 75.854 264.903 72.1408 262.506 72.2029C257.55 72.3314 252.04 76.2719 254.797 81.7786C255.875 83.933 257.702 84.6296 259.981 84.8293C265.458 85.309 271.205 84.8801 276.704 84.8618C282.423 84.8427 288.206 82.61 285.198 75.5538C284.012 72.7712 281.684 72.5144 278.916 72.4543C273.27 72.3316 267.605 72.4727 261.957 72.482C259.565 72.4859 259.561 76.1988 261.957 76.1949Z" fill="#C2BB03"/>
<path d="M260.532 74.3115C260.585 66.6928 258.633 59.0844 254.31 52.6977C253.041 50.8236 251.036 49.4466 249.808 47.5594C246.875 43.0514 246.338 37.1648 248.018 32.1239C250.352 25.1214 256.009 21.3213 262.075 17.9171C271.266 12.7588 278.503 17.8601 285.206 24.3707C290.91 29.9105 293.412 35.9401 292.097 43.9225C291.056 50.246 287.114 54.5024 284.298 59.9897C282.153 64.1695 282.153 68.8236 280.375 73.1396C279.466 75.3476 283.061 76.3095 283.96 74.1266C285.752 69.7759 285.66 65.1515 288.029 60.9946C290.023 57.4954 292.299 54.3241 293.977 50.6085C296.295 45.4762 296.822 39.5078 295.756 33.9458C293.709 23.2748 278.96 10.8432 267.872 11.6743C257.04 12.4862 245.744 23.3731 243.781 33.8718C242.874 38.7197 242.72 44.3102 245.592 48.4035C248.233 52.168 251.029 54.7147 253.164 58.9835C255.665 63.9836 256.854 68.6828 256.814 74.3115C256.797 76.7012 260.515 76.7037 260.532 74.3115Z" fill="#C2BB03"/>
<path d="M260.653 43.4409C264.826 48.1112 268.049 51.3959 268.094 58.1871C268.128 63.2002 268.161 68.2134 268.195 73.2265C268.211 75.6148 271.928 75.6201 271.912 73.2265C271.867 66.435 272.754 58.8609 271.74 52.156C271.056 47.6335 266.2 44.0814 263.282 40.8154C261.685 39.0289 259.064 41.6622 260.653 43.4409Z" fill="#C2BB03"/>
<path d="M277.256 39.8075C274.49 43.0649 271.67 46.2185 268.498 49.093C266.722 50.7021 269.358 53.3216 271.127 51.7184C274.299 48.844 277.118 45.6902 279.885 42.4329C281.424 40.6209 278.807 37.982 277.256 39.8075Z" fill="#C2BB03"/>
<path d="M234.007 40.2985C235.98 40.2985 237.954 40.2985 239.927 40.2985C242.319 40.2985 242.323 36.5811 239.927 36.5811C237.954 36.5811 235.98 36.5811 234.007 36.5811C231.615 36.5811 231.611 40.2985 234.007 40.2985Z" fill="#C2BB03"/>
<path d="M243.943 15.1537C245.206 15.9945 246.281 17.08 247.113 18.3474C248.42 20.3372 251.641 18.479 250.323 16.4734C249.129 14.6554 247.631 13.1533 245.819 11.9477C244.984 11.3914 243.762 11.7845 243.276 12.6137C242.743 13.5238 243.105 14.5961 243.943 15.1537Z" fill="#C2BB03"/>
<path d="M267.875 2.54222C267.971 4.19339 267.99 5.84351 267.932 7.49642C267.849 9.8862 271.566 9.88297 271.649 7.49642C271.707 5.84349 271.688 4.19337 271.593 2.54222C271.455 0.167027 267.737 0.151192 267.875 2.54222Z" fill="#C2BB03"/>
<path d="M267.956 7.9092C267.885 8.91485 267.972 9.887 268.125 10.8813C268.279 11.8731 269.524 12.4215 270.412 12.1779C271.472 11.8869 271.864 10.889 271.71 9.89426C271.609 9.2405 271.627 8.56649 271.673 7.9092C271.743 6.90784 270.769 6.05273 269.814 6.05273C268.75 6.05273 268.026 6.90494 267.956 7.9092Z" fill="#C2BB03"/>
<path d="M297.249 11.4008C296.026 11.8018 295.129 12.631 294.213 13.5029C293.33 14.3441 292.513 15.2699 291.916 16.3392C290.751 18.4286 293.96 20.3031 295.126 18.2132C295.529 17.4901 296.041 16.9072 296.631 16.3304C297.078 15.8949 297.633 15.1792 298.238 14.9811C300.501 14.2394 299.532 10.6528 297.249 11.4008Z" fill="#C2BB03"/>
<path d="M299.957 40.0203C301.703 39.997 303.445 40.0547 305.186 40.1936C307.571 40.384 307.559 36.6656 305.186 36.4762C303.445 36.3372 301.703 36.2795 299.957 36.3029C297.567 36.3349 297.56 40.0524 299.957 40.0203Z" fill="#C2BB03"/>
</g>
<defs>
<clipPath id="clip0_702_404">
<rect width="94.4344" height="94.3863" fill="white" transform="matrix(0.843268 0.537493 -0.538419 0.842677 436.43 120.252)"/>
</clipPath>
<clipPath id="clip1_702_404">
<rect width="105.675" height="105.678" fill="white" transform="matrix(-0.699161 0.714964 -0.71581 -0.698295 516.329 377.446)"/>
</clipPath>
<clipPath id="clip2_702_404">
<rect width="115.239" height="115.201" fill="white" transform="matrix(0.797985 -0.602677 0.603607 0.797282 0 175.596)"/>
</clipPath>
<clipPath id="clip3_702_404">
<rect width="85.9141" height="85.8101" fill="white" transform="translate(226.634)"/>
</clipPath>
</defs>
</svg>
